<svg preserveAspectRatio="xMidYMid meet" viewBox="0 0 291 160" fill="none" xmlns="http://www.w3.org/2000/svg">
<g clip-path="url(#clip0_2520_324)">
<path d="M39.1317 83.8274H29.8188C29.4913 83.8274 29.1772 83.9575 28.9457 84.189C28.7141 84.4206 28.584 84.7346 28.584 85.0621V89.1498C28.584 89.4773 28.7141 89.7913 28.9457 90.0229C29.1772 90.2544 29.4913 90.3845 29.8188 90.3845H31.362V96.5093H37.5884V90.3845H39.1317C39.4591 90.3845 39.7732 90.2544 40.0047 90.0229C40.2363 89.7913 40.3664 89.4773 40.3664 89.1498V85.0621C40.3664 84.7346 40.2363 84.4206 40.0047 84.189C39.7732 83.9575 39.4591 83.8274 39.1317 83.8274Z" fill="#F24E1E"/>
<path d="M48.4596 121.238C42.756 112.892 39.8403 102.956 40.13 92.8512C40.1352 92.6181 40.0595 92.3903 39.9158 92.2067C39.7722 92.023 39.5693 91.8947 39.3418 91.8436V90.0773H29.5061V91.819H29.3706C29.2319 91.8192 29.0947 91.848 28.9676 91.9035C28.8405 91.9591 28.7262 92.0403 28.6319 92.142C28.5375 92.2437 28.4652 92.3638 28.4194 92.4948C28.3735 92.6257 28.3552 92.7647 28.3655 92.903C29.1403 103.704 26.5238 113.391 20.5158 121.963C20.1701 122.455 19.9934 123.047 20.0124 123.648L21.0879 156.916C21.1138 157.658 21.4252 158.361 21.9572 158.879C22.4892 159.397 23.2007 159.69 23.9432 159.696H46.19C46.941 159.689 47.6598 159.39 48.1935 158.862C48.7271 158.334 49.0334 157.618 49.047 156.867L49.4615 124.567C49.4737 123.381 49.1242 122.22 48.4596 121.238Z" fill="#3F3D56"/>
<path opacity="0.2" d="M37.1903 85.1594C37.1903 85.8659 36.9096 86.5435 36.4101 87.043C35.9105 87.5426 35.2329 87.8232 34.5264 87.8232C33.82 87.8232 33.1424 87.5426 32.6428 87.043C32.1433 86.5435 31.8626 85.8659 31.8626 85.1594" fill="black"/>
<path d="M44.9378 132.289H42.2439C41.9867 130.62 41.1407 129.098 39.859 127.999C38.5773 126.899 36.9444 126.295 35.2558 126.295C33.5672 126.295 31.9344 126.899 30.6527 127.999C29.3709 129.098 28.525 130.62 28.2678 132.289H25.5737C25.287 132.289 25.0038 132.351 24.7433 132.47C24.4829 132.59 24.2514 132.765 24.0648 132.982C23.8782 133.2 23.7408 133.455 23.662 133.731C23.5833 134.006 23.5651 134.296 23.6087 134.579L26.5349 153.599H43.3376L46.8919 134.643C46.9457 134.356 46.9356 134.061 46.8623 133.778C46.789 133.495 46.6542 133.232 46.4677 133.007C46.2811 132.782 46.0473 132.602 45.7829 132.477C45.5185 132.353 45.23 132.289 44.9378 132.289Z" fill="#F24E1E"/>
<path d="M271.322 101.716L270.676 127.544L269.876 159.571H242.636L241.698 122.047L241.189 101.716H271.322Z" fill="#E6E6E6"/>
<path d="M258.064 87.9758H254.207V139.081H258.064V87.9758Z" fill="#F24E1E"/>
<path d="M269.393 121.177L268.664 157.887H243.835L242.98 114.878C245.217 114.249 247.56 114.089 249.861 114.405C252.163 114.722 254.375 115.509 256.359 116.718C260.508 119.171 265.168 120.492 269.393 121.177Z" fill="#3F3D56"/>
<path d="M249.982 125.31H246.443V128.849H249.982V125.31Z" fill="#E6E6E6"/>
<path d="M252.392 118.078H248.853V121.617H252.392V118.078Z" fill="#E6E6E6"/>
<path d="M259.992 123.084L257.149 120.976L255.041 123.819L257.884 125.927L259.992 123.084Z" fill="#E6E6E6"/>
<path d="M266.387 129.355L263.544 127.247L261.436 130.09L264.278 132.198L266.387 129.355Z" fill="#E6E6E6"/>
<path d="M255.539 132.971L252.696 130.863L250.588 133.706L253.43 135.814L255.539 132.971Z" fill="#E6E6E6"/>
<path d="M263.849 116.662C264.248 116.662 264.572 116.338 264.572 115.939C264.572 115.54 264.248 115.216 263.849 115.216C263.45 115.216 263.126 115.54 263.126 115.939C263.126 116.338 263.45 116.662 263.849 116.662Z" fill="#3F3D56"/>
<path d="M249.144 111.841C249.544 111.841 249.867 111.517 249.867 111.118C249.867 110.718 249.544 110.395 249.144 110.395C248.745 110.395 248.421 110.718 248.421 111.118C248.421 111.517 248.745 111.841 249.144 111.841Z" fill="#3F3D56"/>
<path d="M261.438 106.779C261.838 106.779 262.162 106.455 262.162 106.055C262.162 105.656 261.838 105.332 261.438 105.332C261.039 105.332 260.715 105.656 260.715 106.055C260.715 106.455 261.039 106.779 261.438 106.779Z" fill="#3F3D56"/>
<path d="M145.666 159.351C189.42 159.351 224.89 123.881 224.89 80.1274C224.89 36.3735 189.42 0.903931 145.666 0.903931C101.913 0.903931 66.4431 36.3735 66.4431 80.1274C66.4431 123.881 101.913 159.351 145.666 159.351Z" fill="#F24E1E"/>
<path opacity="0.2" d="M145.666 137.953C132.288 137.953 119.324 133.314 108.983 124.827C98.6414 116.34 91.5627 104.53 88.9528 91.4085C86.3429 78.2875 88.3633 64.6674 94.6698 52.8689C100.976 41.0705 111.179 31.8238 123.538 26.7042C135.898 21.5847 149.651 20.9091 162.453 24.7926C175.255 28.6761 186.314 36.8784 193.747 48.0019C201.179 59.1254 204.525 72.4819 203.214 85.7956C201.902 99.1093 196.015 111.556 186.555 121.016C181.198 126.403 174.826 130.673 167.807 133.58C160.789 136.487 153.263 137.974 145.666 137.953ZM145.666 25.8682C115.748 25.8682 91.4073 50.2087 91.4073 80.1273C91.4073 110.046 115.748 134.386 145.666 134.386C175.585 134.386 199.926 110.046 199.926 80.1273C199.926 50.2087 175.585 25.8682 145.666 25.8682Z" fill="black"/>
<path d="M145.667 136.17C176.618 136.17 201.709 111.079 201.709 80.1274C201.709 49.1761 176.618 24.0851 145.667 24.0851C114.715 24.0851 89.6242 49.1761 89.6242 80.1274C89.6242 111.079 114.715 136.17 145.667 136.17Z" fill="#3F3D56"/>
<path d="M103.989 57.7184C103.564 56.886 103.307 55.9779 103.233 55.0462C103.16 54.1145 103.27 53.1773 103.559 52.2883C103.847 51.3993 104.308 50.5759 104.915 49.8652C105.522 49.1545 106.263 48.5703 107.096 48.1462C107.929 47.7221 108.837 47.4662 109.769 47.3934C110.701 47.3205 111.638 47.432 112.527 47.7215C113.415 48.011 114.238 48.4728 114.948 49.0805C115.658 49.6882 116.242 50.4299 116.665 51.2633L132.498 82.3551C132.923 83.1876 133.18 84.0956 133.254 85.0273C133.328 85.9591 133.217 86.8962 132.929 87.7852C132.64 88.6742 132.179 89.4976 131.572 90.2084C130.965 90.9191 130.224 91.5032 129.391 91.9274C128.559 92.3515 127.65 92.6073 126.718 92.6802C125.787 92.7531 124.85 92.6416 123.961 92.3521C123.072 92.0626 122.249 91.6008 121.539 90.9931C120.829 90.3853 120.246 89.6436 119.822 88.8103L103.989 57.7184Z" fill="#FF6584"/>
<path opacity="0.2" d="M105.755 61.1863L105.024 59.7513C108.671 56.9175 112.954 54.8335 117.7 53.2961L118.431 54.7312C113.294 55.8009 108.924 57.7805 105.755 61.1863Z" fill="black"/>
<path opacity="0.2" d="M109.165 67.8831L108.435 66.4481C112.082 63.6143 116.364 61.5302 121.11 59.9929L121.841 61.4279C116.704 62.4976 112.334 64.4773 109.165 67.8831Z" fill="black"/>
<path opacity="0.2" d="M112.576 74.5797L111.845 73.1447C115.492 70.311 119.775 68.2269 124.521 66.6896L125.252 68.1246C120.115 69.1943 115.744 71.1739 112.576 74.5797Z" fill="black"/>
<path opacity="0.2" d="M115.986 81.2764L115.255 79.8414C118.902 77.0076 123.185 74.9235 127.931 73.3862L128.662 74.8212C123.525 75.891 119.155 77.8706 115.986 81.2764Z" fill="black"/>
<path opacity="0.2" d="M119.396 87.9732L118.665 86.5382C122.312 83.7044 126.595 81.6203 131.341 80.083L132.072 81.518C126.935 82.5877 122.565 84.5674 119.396 87.9732Z" fill="black"/>
<path d="M92.1104 69.358C91.6855 68.5256 91.4288 67.6176 91.355 66.6859C91.2812 65.7542 91.3918 64.8172 91.6804 63.9283C91.969 63.0393 92.4299 62.216 93.0369 61.5053C93.6438 60.7946 94.3849 60.2106 95.2177 59.7865C96.0505 59.3623 96.9588 59.1065 97.8905 59.0336C98.8222 58.9607 99.7592 59.0722 100.648 59.3616C101.537 59.651 102.359 60.1127 103.069 60.7204C103.78 61.328 104.363 62.0696 104.786 62.9029L120.62 93.9947C121.473 95.6754 121.625 97.6262 121.041 99.4186C120.457 101.211 119.186 102.698 117.506 103.554C115.826 104.409 113.875 104.563 112.083 103.981C110.29 103.399 108.801 102.129 107.944 100.45L92.1104 69.358Z" fill="#FF6584"/>
<path opacity="0.2" d="M93.8764 72.8259L93.1456 71.3909C96.7927 68.5572 101.075 66.4731 105.822 64.9358L106.552 66.3708C101.415 67.4405 97.0452 69.4201 93.8764 72.8259Z" fill="black"/>
<path opacity="0.2" d="M97.2867 79.5227L96.5559 78.0877C100.203 75.254 104.486 73.1699 109.232 71.6326L109.963 73.0676C104.826 74.1373 100.455 76.1169 97.2867 79.5227Z" fill="black"/>
<path opacity="0.2" d="M100.697 86.2194L99.9662 84.7844C103.613 81.9506 107.896 79.8665 112.642 78.3292L113.373 79.7642C108.236 80.8339 103.866 82.8136 100.697 86.2194Z" fill="black"/>
<path opacity="0.2" d="M104.107 92.9162L103.376 91.4812C107.024 88.6474 111.306 86.5633 116.052 85.026L116.783 86.461C111.646 87.5307 107.276 89.5104 104.107 92.9162Z" fill="black"/>
<path opacity="0.2" d="M107.517 99.6128L106.787 98.1778C110.434 95.344 114.716 93.26 119.463 91.7227L120.193 93.1577C115.057 94.2274 110.686 96.207 107.517 99.6128Z" fill="black"/>
<path d="M183.113 81.9105L183.163 81.9106C184.868 81.9249 186.539 81.4249 187.955 80.4757C189.372 79.5266 190.47 78.1725 191.106 76.5899C192.414 73.2845 193.073 69.7583 193.047 66.2037C192.958 51.1587 180.718 38.8159 165.674 38.6078C159.268 38.5181 153.027 40.6467 148.01 44.6327C142.993 48.6187 139.509 54.2168 138.148 60.4782C136.788 66.7395 137.634 73.2788 140.544 78.9875C143.454 84.6962 148.248 89.223 154.114 91.8006C155.664 92.487 157.386 92.6888 159.053 92.3797C160.72 92.0706 162.254 91.2649 163.455 90.0684C166.032 87.4787 169.095 85.4246 172.469 84.0244C175.843 82.6243 179.46 81.9058 183.113 81.9105Z" fill="#E6E6E6"/>
<path d="M168.848 73.5042C173.912 73.5042 178.018 69.3984 178.018 64.3336C178.018 59.2689 173.912 55.1631 168.848 55.1631C163.783 55.1631 159.677 59.2689 159.677 64.3336C159.677 69.3984 163.783 73.5042 168.848 73.5042Z" fill="#F9A825"/>
<path d="M148.917 63.3024C149.513 63.3024 149.997 62.8187 149.997 62.2221C149.997 61.6254 149.513 61.1417 148.917 61.1417C148.32 61.1417 147.836 61.6254 147.836 62.2221C147.836 62.8187 148.32 63.3024 148.917 63.3024Z" fill="#3F3D56"/>
<path d="M113.253 64.3213C113.85 64.3213 114.334 63.8376 114.334 63.241C114.334 62.6443 113.85 62.1606 113.253 62.1606C112.657 62.1606 112.173 62.6443 112.173 63.241C112.173 63.8376 112.657 64.3213 113.253 64.3213Z" fill="#3F3D56"/>
<path d="M154.674 52.1062C155.271 52.1062 155.755 51.6225 155.755 51.0259C155.755 50.4292 155.271 49.9456 154.674 49.9456C154.078 49.9456 153.594 50.4292 153.594 51.0259C153.594 51.6225 154.078 52.1062 154.674 52.1062Z" fill="#3F3D56"/>
<path d="M154.644 83.2456C155.24 83.2456 155.724 82.7619 155.724 82.1653C155.724 81.5686 155.24 81.085 154.644 81.085C154.047 81.085 153.563 81.5686 153.563 82.1653C153.563 82.7619 154.047 83.2456 154.644 83.2456Z" fill="#3F3D56"/>
<path d="M176.042 49.8749C176.638 49.8749 177.122 49.3912 177.122 48.7946C177.122 48.1979 176.638 47.7142 176.042 47.7142C175.445 47.7142 174.961 48.1979 174.961 48.7946C174.961 49.3912 175.445 49.8749 176.042 49.8749Z" fill="#3F3D56"/>
<path d="M106.244 79.4246C106.84 79.4246 107.324 78.9409 107.324 78.3443C107.324 77.7476 106.84 77.2639 106.244 77.2639C105.647 77.2639 105.163 77.7476 105.163 78.3443C105.163 78.9409 105.647 79.4246 106.244 79.4246Z" fill="#3F3D56"/>
<path d="M114.14 94.9635C114.737 94.9635 115.221 94.4798 115.221 93.8832C115.221 93.2865 114.737 92.8029 114.14 92.8029C113.544 92.8029 113.06 93.2865 113.06 93.8832C113.06 94.4798 113.544 94.9635 114.14 94.9635Z" fill="#3F3D56"/>
<path d="M163.753 99.9969C166.004 99.9969 167.829 98.1721 167.829 95.9211C167.829 93.6701 166.004 91.8453 163.753 91.8453C161.502 91.8453 159.677 93.6701 159.677 95.9211C159.677 98.1721 161.502 99.9969 163.753 99.9969Z" fill="#FF6584"/>
<path opacity="0.2" d="M166.81 96.1759C166.81 96.9866 166.488 97.7642 165.914 98.3374C165.341 98.9107 164.564 99.2328 163.753 99.2328C162.942 99.2328 162.165 98.9107 161.591 98.3374C161.018 97.7642 160.696 96.9866 160.696 96.1759" fill="black"/>
<path opacity="0.2" d="M160.696 95.6664C160.696 94.8556 161.018 94.0781 161.591 93.5048C162.165 92.9316 162.942 92.6095 163.753 92.6095C164.564 92.6095 165.341 92.9316 165.914 93.5048C166.488 94.0781 166.81 94.8556 166.81 95.6664" fill="black"/>
<path d="M162.224 94.9021C162.365 94.9021 162.479 94.7311 162.479 94.52C162.479 94.309 162.365 94.1379 162.224 94.1379C162.084 94.1379 161.97 94.309 161.97 94.52C161.97 94.7311 162.084 94.9021 162.224 94.9021Z" fill="#FF6584"/>
<path d="M163.753 94.3926C163.894 94.3926 164.008 94.2216 164.008 94.0105C164.008 93.7995 163.894 93.6284 163.753 93.6284C163.612 93.6284 163.498 93.7995 163.498 94.0105C163.498 94.2216 163.612 94.3926 163.753 94.3926Z" fill="#FF6584"/>
<path d="M163.753 97.7043C163.894 97.7043 164.008 97.5332 164.008 97.3222C164.008 97.1111 163.894 96.9401 163.753 96.9401C163.612 96.9401 163.498 97.1111 163.498 97.3222C163.498 97.5332 163.612 97.7043 163.753 97.7043Z" fill="#FF6584"/>
<path d="M165.281 95.6663C165.422 95.6663 165.536 95.4952 165.536 95.2842C165.536 95.0732 165.422 94.9021 165.281 94.9021C165.141 94.9021 165.027 95.0732 165.027 95.2842C165.027 95.4952 165.141 95.6663 165.281 95.6663Z" fill="#FF6584"/>
<path d="M165.027 98.4684C165.167 98.4684 165.281 98.2974 165.281 98.0863C165.281 97.8753 165.167 97.7042 165.027 97.7042C164.886 97.7042 164.772 97.8753 164.772 98.0863C164.772 98.2974 164.886 98.4684 165.027 98.4684Z" fill="#FF6584"/>
<path d="M161.97 97.1948C162.11 97.1948 162.224 97.0237 162.224 96.8127C162.224 96.6016 162.11 96.4305 161.97 96.4305C161.829 96.4305 161.715 96.6016 161.715 96.8127C161.715 97.0237 161.829 97.1948 161.97 97.1948Z" fill="#FF6584"/>
<path d="M171.904 89.0432C174.155 89.0432 175.98 87.2184 175.98 84.9674C175.98 82.7164 174.155 80.8916 171.904 80.8916C169.653 80.8916 167.829 82.7164 167.829 84.9674C167.829 87.2184 169.653 89.0432 171.904 89.0432Z" fill="#FF6584"/>
<path opacity="0.2" d="M174.961 85.2222C174.961 86.0329 174.639 86.8104 174.066 87.3837C173.493 87.957 172.715 88.279 171.905 88.279C171.094 88.279 170.316 87.957 169.743 87.3837C169.17 86.8104 168.848 86.0329 168.848 85.2222" fill="black"/>
<path opacity="0.2" d="M168.848 84.7126C168.848 83.9019 169.17 83.1244 169.743 82.5511C170.316 81.9778 171.094 81.6558 171.905 81.6558C172.715 81.6558 173.493 81.9778 174.066 82.5511C174.639 83.1244 174.961 83.9019 174.961 84.7126" fill="black"/>
<path d="M170.376 83.9484C170.517 83.9484 170.631 83.7773 170.631 83.5663C170.631 83.3553 170.517 83.1842 170.376 83.1842C170.235 83.1842 170.121 83.3553 170.121 83.5663C170.121 83.7773 170.235 83.9484 170.376 83.9484Z" fill="#FF6584"/>
<path d="M171.905 83.439C172.045 83.439 172.159 83.2679 172.159 83.0569C172.159 82.8459 172.045 82.6748 171.905 82.6748C171.764 82.6748 171.65 82.8459 171.65 83.0569C171.65 83.2679 171.764 83.439 171.905 83.439Z" fill="#FF6584"/>
<path d="M171.905 86.7505C172.045 86.7505 172.159 86.5795 172.159 86.3684C172.159 86.1574 172.045 85.9863 171.905 85.9863C171.764 85.9863 171.65 86.1574 171.65 86.3684C171.65 86.5795 171.764 86.7505 171.905 86.7505Z" fill="#FF6584"/>
<path d="M173.433 84.7127C173.574 84.7127 173.688 84.5416 173.688 84.3306C173.688 84.1196 173.574 83.9485 173.433 83.9485C173.292 83.9485 173.178 84.1196 173.178 84.3306C173.178 84.5416 173.292 84.7127 173.433 84.7127Z" fill="#FF6584"/>
<path d="M173.178 87.5147C173.319 87.5147 173.433 87.3436 173.433 87.1326C173.433 86.9216 173.319 86.7505 173.178 86.7505C173.038 86.7505 172.923 86.9216 172.923 87.1326C172.923 87.3436 173.038 87.5147 173.178 87.5147Z" fill="#FF6584"/>
<path d="M170.121 86.241C170.262 86.241 170.376 86.0699 170.376 85.8589C170.376 85.6479 170.262 85.4768 170.121 85.4768C169.981 85.4768 169.867 85.6479 169.867 85.8589C169.867 86.0699 169.981 86.241 170.121 86.241Z" fill="#FF6584"/>
<path d="M180.056 94.6475C182.307 94.6475 184.132 92.8227 184.132 90.5717C184.132 88.3206 182.307 86.4958 180.056 86.4958C177.805 86.4958 175.98 88.3206 175.98 90.5717C175.98 92.8227 177.805 94.6475 180.056 94.6475Z" fill="#F24E1E"/>
<path opacity="0.2" d="M183.113 90.8264C183.113 91.6371 182.791 92.4147 182.218 92.988C181.644 93.5612 180.867 93.8833 180.056 93.8833C179.245 93.8833 178.468 93.5612 177.895 92.988C177.321 92.4147 176.999 91.6371 176.999 90.8264" fill="black"/>
<path opacity="0.2" d="M176.999 90.3169C176.999 89.5061 177.321 88.7286 177.895 88.1553C178.468 87.5821 179.245 87.26 180.056 87.26C180.867 87.26 181.644 87.5821 182.218 88.1553C182.791 88.7286 183.113 89.5061 183.113 90.3169" fill="black"/>
<path d="M178.528 89.5527C178.668 89.5527 178.782 89.3816 178.782 89.1706C178.782 88.9595 178.668 88.7885 178.528 88.7885C178.387 88.7885 178.273 88.9595 178.273 89.1706C178.273 89.3816 178.387 89.5527 178.528 89.5527Z" fill="#F24E1E"/>
<path d="M180.056 89.0431C180.197 89.0431 180.311 88.8721 180.311 88.661C180.311 88.45 180.197 88.2789 180.056 88.2789C179.915 88.2789 179.801 88.45 179.801 88.661C179.801 88.8721 179.915 89.0431 180.056 89.0431Z" fill="#F24E1E"/>
<path d="M180.056 92.3548C180.197 92.3548 180.311 92.1837 180.311 91.9727C180.311 91.7617 180.197 91.5906 180.056 91.5906C179.915 91.5906 179.801 91.7617 179.801 91.9727C179.801 92.1837 179.915 92.3548 180.056 92.3548Z" fill="#F24E1E"/>
<path d="M181.585 90.3169C181.725 90.3169 181.839 90.1459 181.839 89.9348C181.839 89.7238 181.725 89.5527 181.585 89.5527C181.444 89.5527 181.33 89.7238 181.33 89.9348C181.33 90.1459 181.444 90.3169 181.585 90.3169Z" fill="#F24E1E"/>
<path d="M181.33 93.1189C181.47 93.1189 181.585 92.9479 181.585 92.7368C181.585 92.5258 181.47 92.3547 181.33 92.3547C181.189 92.3547 181.075 92.5258 181.075 92.7368C181.075 92.9479 181.189 93.1189 181.33 93.1189Z" fill="#F24E1E"/>
<path d="M178.273 91.8453C178.414 91.8453 178.528 91.6742 178.528 91.4632C178.528 91.2521 178.414 91.0811 178.273 91.0811C178.132 91.0811 178.018 91.2521 178.018 91.4632C178.018 91.6742 178.132 91.8453 178.273 91.8453Z" fill="#F24E1E"/>
<path d="M159.677 95.1569C161.928 95.1569 163.753 93.3321 163.753 91.081C163.753 88.83 161.928 87.0052 159.677 87.0052C157.426 87.0052 155.601 88.83 155.601 91.081C155.601 93.3321 157.426 95.1569 159.677 95.1569Z" fill="#F24E1E"/>
<path opacity="0.2" d="M162.734 91.3358C162.734 92.1465 162.412 92.9241 161.839 93.4974C161.265 94.0706 160.488 94.3927 159.677 94.3927C158.866 94.3927 158.089 94.0706 157.516 93.4974C156.942 92.9241 156.62 92.1465 156.62 91.3358" fill="black"/>
<path opacity="0.2" d="M156.62 90.8264C156.62 90.0157 156.942 89.2381 157.516 88.6649C158.089 88.0916 158.866 87.7695 159.677 87.7695C160.488 87.7695 161.265 88.0916 161.839 88.6649C162.412 89.2381 162.734 90.0157 162.734 90.8264" fill="black"/>
<path d="M158.149 90.0622C158.289 90.0622 158.403 89.8911 158.403 89.6801C158.403 89.469 158.289 89.298 158.149 89.298C158.008 89.298 157.894 89.469 157.894 89.6801C157.894 89.8911 158.008 90.0622 158.149 90.0622Z" fill="#F24E1E"/>
<path d="M159.677 89.5527C159.818 89.5527 159.932 89.3816 159.932 89.1706C159.932 88.9595 159.818 88.7885 159.677 88.7885C159.536 88.7885 159.422 88.9595 159.422 89.1706C159.422 89.3816 159.536 89.5527 159.677 89.5527Z" fill="#F24E1E"/>
<path d="M159.677 92.8643C159.818 92.8643 159.932 92.6932 159.932 92.4822C159.932 92.2712 159.818 92.1001 159.677 92.1001C159.536 92.1001 159.422 92.2712 159.422 92.4822C159.422 92.6932 159.536 92.8643 159.677 92.8643Z" fill="#F24E1E"/>
<path d="M161.205 90.8263C161.346 90.8263 161.46 90.6553 161.46 90.4442C161.46 90.2332 161.346 90.0621 161.205 90.0621C161.065 90.0621 160.951 90.2332 160.951 90.4442C160.951 90.6553 161.065 90.8263 161.205 90.8263Z" fill="#F24E1E"/>
<path d="M160.951 93.6285C161.091 93.6285 161.206 93.4574 161.206 93.2464C161.206 93.0353 161.091 92.8643 160.951 92.8643C160.81 92.8643 160.696 93.0353 160.696 93.2464C160.696 93.4574 160.81 93.6285 160.951 93.6285Z" fill="#F24E1E"/>
<path d="M157.894 92.3548C158.035 92.3548 158.149 92.1837 158.149 91.9727C158.149 91.7617 158.035 91.5906 157.894 91.5906C157.753 91.5906 157.639 91.7617 157.639 91.9727C157.639 92.1837 157.753 92.3548 157.894 92.3548Z" fill="#F24E1E"/>
<path d="M168.848 96.94C171.099 96.94 172.923 95.1153 172.923 92.8643C172.923 90.6132 171.099 88.7885 168.848 88.7885C166.597 88.7885 164.772 90.6132 164.772 92.8643C164.772 95.1153 166.597 96.94 168.848 96.94Z" fill="#F24E1E"/>
<path opacity="0.2" d="M171.904 93.119C171.904 93.5205 171.825 93.9179 171.672 94.2888C171.518 94.6597 171.293 94.9967 171.009 95.2805C170.725 95.5644 170.388 95.7896 170.017 95.9432C169.647 96.0968 169.249 96.1759 168.848 96.1759C168.446 96.1759 168.049 96.0968 167.678 95.9432C167.307 95.7896 166.97 95.5644 166.686 95.2805C166.402 94.9967 166.177 94.6597 166.023 94.2888C165.87 93.9179 165.791 93.5205 165.791 93.119" fill="black"/>
<path opacity="0.2" d="M165.791 92.6096C165.791 92.2082 165.87 91.8107 166.023 91.4398C166.177 91.0689 166.402 90.7319 166.686 90.4481C166.97 90.1642 167.307 89.9391 167.678 89.7854C168.049 89.6318 168.446 89.5527 168.848 89.5527C169.249 89.5527 169.647 89.6318 170.017 89.7854C170.388 89.9391 170.725 90.1642 171.009 90.4481C171.293 90.7319 171.518 91.0689 171.672 91.4398C171.825 91.8107 171.904 92.2082 171.904 92.6096" fill="black"/>
<path d="M167.319 91.8453C167.46 91.8453 167.574 91.6742 167.574 91.4632C167.574 91.2521 167.46 91.0811 167.319 91.0811C167.179 91.0811 167.064 91.2521 167.064 91.4632C167.064 91.6742 167.179 91.8453 167.319 91.8453Z" fill="#F24E1E"/>
<path d="M168.848 91.3359C168.988 91.3359 169.102 91.1648 169.102 90.9538C169.102 90.7427 168.988 90.5717 168.848 90.5717C168.707 90.5717 168.593 90.7427 168.593 90.9538C168.593 91.1648 168.707 91.3359 168.848 91.3359Z" fill="#F24E1E"/>
<path d="M168.848 94.6474C168.988 94.6474 169.102 94.4763 169.102 94.2653C169.102 94.0543 168.988 93.8832 168.848 93.8832C168.707 93.8832 168.593 94.0543 168.593 94.2653C168.593 94.4763 168.707 94.6474 168.848 94.6474Z" fill="#F24E1E"/>
<path d="M170.376 92.6096C170.517 92.6096 170.631 92.4385 170.631 92.2274C170.631 92.0164 170.517 91.8453 170.376 91.8453C170.235 91.8453 170.121 92.0164 170.121 92.2274C170.121 92.4385 170.235 92.6096 170.376 92.6096Z" fill="#F24E1E"/>
<path d="M170.121 95.4117C170.262 95.4117 170.376 95.2406 170.376 95.0296C170.376 94.8185 170.262 94.6475 170.121 94.6475C169.981 94.6475 169.867 94.8185 169.867 95.0296C169.867 95.2406 169.981 95.4117 170.121 95.4117Z" fill="#F24E1E"/>
<path d="M167.064 94.138C167.205 94.138 167.319 93.9669 167.319 93.7559C167.319 93.5449 167.205 93.3738 167.064 93.3738C166.924 93.3738 166.81 93.5449 166.81 93.7559C166.81 93.9669 166.924 94.138 167.064 94.138Z" fill="#F24E1E"/>
<path d="M175.216 101.271C177.467 101.271 179.292 99.4458 179.292 97.1948C179.292 94.9438 177.467 93.119 175.216 93.119C172.965 93.119 171.14 94.9438 171.14 97.1948C171.14 99.4458 172.965 101.271 175.216 101.271Z" fill="#FF6584"/>
<path opacity="0.2" d="M178.273 97.4496C178.273 98.2603 177.951 99.0378 177.378 99.6111C176.804 100.184 176.027 100.506 175.216 100.506C174.405 100.506 173.628 100.184 173.055 99.6111C172.481 99.0378 172.159 98.2603 172.159 97.4496" fill="black"/>
<path opacity="0.2" d="M172.159 96.94C172.159 96.1293 172.481 95.3518 173.055 94.7785C173.628 94.2052 174.405 93.8832 175.216 93.8832C176.027 93.8832 176.804 94.2052 177.378 94.7785C177.951 95.3518 178.273 96.1293 178.273 96.94" fill="black"/>
<path d="M173.688 96.1758C173.828 96.1758 173.942 96.0048 173.942 95.7937C173.942 95.5827 173.828 95.4116 173.688 95.4116C173.547 95.4116 173.433 95.5827 173.433 95.7937C173.433 96.0048 173.547 96.1758 173.688 96.1758Z" fill="#FF6584"/>
<path d="M175.216 95.6663C175.357 95.6663 175.471 95.4952 175.471 95.2842C175.471 95.0732 175.357 94.9021 175.216 94.9021C175.075 94.9021 174.961 95.0732 174.961 95.2842C174.961 95.4952 175.075 95.6663 175.216 95.6663Z" fill="#FF6584"/>
<path d="M175.216 98.978C175.357 98.978 175.471 98.8069 175.471 98.5959C175.471 98.3848 175.357 98.2137 175.216 98.2137C175.075 98.2137 174.961 98.3848 174.961 98.5959C174.961 98.8069 175.075 98.978 175.216 98.978Z" fill="#FF6584"/>
<path d="M176.744 96.94C176.885 96.94 176.999 96.7689 176.999 96.5579C176.999 96.3469 176.885 96.1758 176.744 96.1758C176.604 96.1758 176.49 96.3469 176.49 96.5579C176.49 96.7689 176.604 96.94 176.744 96.94Z" fill="#FF6584"/>
<path d="M176.49 99.7422C176.63 99.7422 176.745 99.5712 176.745 99.3601C176.745 99.1491 176.63 98.978 176.49 98.978C176.349 98.978 176.235 99.1491 176.235 99.3601C176.235 99.5712 176.349 99.7422 176.49 99.7422Z" fill="#FF6584"/>
<path d="M173.433 98.4684C173.574 98.4684 173.688 98.2974 173.688 98.0863C173.688 97.8753 173.574 97.7042 173.433 97.7042C173.292 97.7042 173.178 97.8753 173.178 98.0863C173.178 98.2974 173.292 98.4684 173.433 98.4684Z" fill="#FF6584"/>
<path d="M122.801 82.7361C123.398 82.7361 123.882 82.2524 123.882 81.6558C123.882 81.0591 123.398 80.5754 122.801 80.5754C122.205 80.5754 121.721 81.0591 121.721 81.6558C121.721 82.2524 122.205 82.7361 122.801 82.7361Z" fill="#3F3D56"/>
<path d="M152.167 120.869L126.221 113.674L127.215 109.982L153.161 117.178L152.167 120.869Z" fill="#F9A825"/>
<path d="M148.363 119.636C139.478 121.337 130.351 121.337 121.466 119.636V115.809C130.371 117.284 139.459 117.284 148.363 115.809V119.636Z" fill="#F9A825"/>
<path d="M151.129 108.154C142.244 109.855 133.117 109.855 124.232 108.154V104.327C133.136 105.803 142.224 105.803 151.129 104.327V108.154Z" fill="#F9A825"/>
<path d="M160.429 112.747C151.544 114.448 142.417 114.448 133.532 112.747V108.92C142.437 110.396 151.525 110.396 160.429 108.92V112.747Z" fill="#F9A825"/>
<path d="M162.692 117.084C153.807 118.785 144.68 118.785 135.795 117.084V113.257C144.7 114.733 153.787 114.733 162.692 113.257V117.084Z" fill="#F9A825"/>
<path d="M170.579 122.752L144.043 127.209L143.428 123.433L169.964 118.976L170.579 122.752Z" fill="#F9A825"/>
<path d="M166.615 123.242C159.258 128.546 150.967 132.413 142.175 134.641L140.601 131.164C149.315 128.724 157.571 124.873 165.041 119.765L166.615 123.242Z" fill="#F9A825"/>
<path d="M164.405 111.638C157.048 116.942 148.756 120.809 139.965 123.037L138.39 119.56C147.104 117.12 155.36 113.269 162.83 108.161L164.405 111.638Z" fill="#F9A825"/>
<path d="M174.745 111.87C167.388 117.173 159.096 121.04 150.305 123.268L148.731 119.791C157.445 117.351 165.701 113.5 173.171 108.392L174.745 111.87Z" fill="#F9A825"/>
<path d="M178.585 114.852C171.228 120.155 162.937 124.022 154.145 126.251L152.571 122.773C161.285 120.333 169.541 116.483 177.011 111.374L178.585 114.852Z" fill="#F9A825"/>
<path d="M146.431 107.384H145.157V108.658H146.431V107.384Z" fill="#00BF71"/>
<path d="M150.252 129.546H148.978V130.82H150.252V129.546Z" fill="#00BF71"/>
<path d="M129.873 107.384H128.599V108.658H129.873V107.384Z" fill="#00BF71"/>
<path d="M159.422 123.178H158.149V124.452H159.422V123.178Z" fill="#00BF71"/>
<path d="M160.187 115.791H158.913V117.064H160.187V115.791Z" fill="#00BF71"/>
<path d="M139.176 112.303L137.7 111.302L137.128 112.145L138.603 113.147L139.176 112.303Z" fill="#00BF71"/>
<path d="M154.205 115.105L152.729 114.104L152.157 114.947L153.633 115.949L154.205 115.105Z" fill="#00BF71"/>
<path d="M135.864 119.945L134.388 118.944L133.816 119.788L135.292 120.789L135.864 119.945Z" fill="#00BF71"/>
<path d="M145.205 119.871L146.207 118.396L145.363 117.824L144.362 119.299L145.205 119.871Z" fill="#00BF71"/>
<path d="M152.083 121.655L153.084 120.179L152.241 119.607L151.24 121.082L152.083 121.655Z" fill="#00BF71"/>
<path d="M170.426 115.541L171.427 114.065L170.584 113.493L169.583 114.968L170.426 115.541Z" fill="#00BF71"/>
<path d="M291 159.266H0V160H291V159.266Z" fill="#3F3D56"/>
</g>
<defs>
<clipPath id="clip0_2520_324">
<rect width="291" height="159.096" fill="white" transform="translate(0 0.903931)"/>
</clipPath>
</defs>
</svg>
