<svg preserveAspectRatio="xMidYMid meet" viewBox="0 0 357 158" fill="none" xmlns="http://www.w3.org/2000/svg">
<g clip-path="url(#clip0_2520_146)">
<path d="M106.209 129.359C104.981 138.976 100.468 147.774 95.6534 156.249C95.4943 156.537 95.3305 156.821 95.1627 157.11H45.1223C44.1102 156.847 43.1112 156.559 42.1164 156.249C36.4645 154.528 31.1287 151.903 26.3163 148.476C7.90647 135.212 0.822366 110.149 4.0221 87.6908C6.0117 73.7381 12.1353 59.4926 24.0597 51.9779C30.3557 48.0031 38.443 46.7112 45.6907 48.1883C45.8803 48.2228 46.0698 48.2658 46.2635 48.3046C52.4991 49.7085 58.0543 53.1966 61.2153 58.8165C66.8997 68.915 63.5149 81.425 60.7201 92.6647C57.9338 103.904 56.4222 117.358 64.5097 125.647C61.8396 117.788 64.4752 108.413 70.853 103.099C75.6718 99.0899 82.3812 97.5869 88.5006 98.8315C89.0862 98.9564 89.6634 99.0985 90.2318 99.2707C91.6056 99.6731 92.9301 100.228 94.1807 100.924C103.719 106.251 107.582 118.52 106.209 129.359Z" fill="#F2F2F2"/>
<path d="M76.5375 156.249C77.9241 156.571 79.315 156.856 80.7146 157.11H73.1483C72.1577 156.843 71.1716 156.559 70.1942 156.249C68.0452 155.577 65.9293 154.806 63.8465 153.936C55.4921 150.431 47.7965 145.168 41.9743 138.166C39.1268 134.773 36.8016 130.975 35.0755 126.896C33.2037 122.286 32.0141 117.427 31.5444 112.474C30.4892 102.311 31.5658 91.8679 33.5769 81.8857C35.6522 71.5397 39.0024 61.4909 43.5505 51.9692C44.0974 50.828 44.663 49.694 45.2472 48.5671C45.2874 48.4744 45.3482 48.392 45.4251 48.3263C45.502 48.2607 45.5928 48.2134 45.6907 48.1882C45.8895 48.1497 46.0954 48.1915 46.2635 48.3045C46.4651 48.4202 46.6147 48.6089 46.6812 48.8317C46.7477 49.0545 46.7261 49.2943 46.6209 49.5016C41.9315 58.6466 38.3768 68.3302 36.0358 78.3372C33.7449 88.0998 32.4443 98.3146 32.8878 108.353C33.3098 117.732 35.7603 126.956 41.3197 134.626C46.397 141.628 53.4077 147.149 61.1636 150.909C66.0727 153.257 71.2295 155.048 76.5375 156.249Z" fill="white"/>
<path d="M93.143 157.11H90.9122C90.6624 156.826 90.4212 156.537 90.1844 156.249C85.1033 150.075 81.6611 142.72 80.1763 134.863C78.373 125.058 79.7758 114.934 84.1769 105.989C85.4048 103.481 86.8516 101.085 88.5005 98.8315C89.0861 98.9564 89.6633 99.0985 90.2317 99.2708C85.8945 105.017 82.9773 111.708 81.718 118.796C80.5945 125.438 80.9681 132.247 82.8113 138.727C84.6545 145.206 87.9208 151.192 92.3721 156.249C92.6217 156.537 92.8802 156.826 93.143 157.11Z" fill="white"/>
<path d="M294.096 149.786C294.42 152.324 295.611 154.646 296.882 156.883C296.924 156.959 296.967 157.034 297.011 157.11H310.218C310.485 157.04 310.749 156.964 311.011 156.883C312.503 156.428 313.911 155.736 315.181 154.831C320.04 151.331 321.91 144.716 321.065 138.789C320.54 135.106 318.924 131.347 315.777 129.364C314.068 128.323 312.029 127.966 310.068 128.363C310.018 128.373 309.968 128.384 309.917 128.394C309.101 128.552 308.327 128.881 307.647 129.359C306.967 129.837 306.395 130.454 305.971 131.168C304.471 133.834 305.364 137.135 306.101 140.102C306.837 143.068 307.236 146.618 305.101 148.806C305.414 147.891 305.478 146.91 305.285 145.962C305.093 145.014 304.652 144.135 304.007 143.414C303.362 142.694 302.537 142.158 301.617 141.861C300.696 141.565 299.714 141.52 298.77 141.729C298.615 141.762 298.463 141.8 298.313 141.845C297.95 141.951 297.601 142.098 297.271 142.281C294.753 143.687 293.734 146.925 294.096 149.786Z" fill="#F2F2F2"/>
<path d="M301.927 156.883C301.561 156.968 301.194 157.043 300.825 157.11H302.821C303.083 157.04 303.343 156.964 303.601 156.883C304.168 156.705 304.727 156.502 305.276 156.272C307.506 155.367 309.486 153.94 311.049 152.11C311.8 151.215 312.414 150.213 312.87 149.136C313.364 147.919 313.677 146.637 313.801 145.33C314.028 142.627 313.847 139.906 313.265 137.257C312.717 134.526 311.833 131.874 310.633 129.361C310.488 129.06 310.339 128.761 310.185 128.464C310.174 128.439 310.158 128.417 310.138 128.4C310.118 128.383 310.094 128.37 310.068 128.364C310.016 128.353 309.961 128.364 309.917 128.394C309.864 128.425 309.824 128.475 309.807 128.533C309.789 128.592 309.795 128.655 309.822 128.71C311.06 131.124 311.998 133.679 312.616 136.32C313.252 138.911 313.532 141.576 313.447 144.242C313.401 146.722 312.628 149.133 311.222 151.176C309.854 153.016 308.056 154.492 305.984 155.473C304.689 156.093 303.328 156.566 301.927 156.883Z" fill="white"/>
<path d="M297.544 157.11H298.133C298.199 157.035 298.263 156.959 298.325 156.882C299.666 155.253 300.575 153.312 300.967 151.238C301.443 148.651 301.072 145.979 299.911 143.618C299.587 142.956 299.205 142.324 298.77 141.729C298.615 141.762 298.463 141.799 298.313 141.845C299.457 143.361 300.227 145.127 300.56 146.998C300.856 148.751 300.758 150.548 300.271 152.258C299.785 153.968 298.923 155.548 297.748 156.882C297.682 156.959 297.614 157.035 297.544 157.11Z" fill="white"/>
<path d="M175.059 91.5146H133.726L133.288 78.8061C133.269 78.2552 133.369 77.7067 133.583 77.1985C133.796 76.6902 134.117 76.2342 134.523 75.8618C134.93 75.4894 135.412 75.2095 135.937 75.0414C136.462 74.8733 137.017 74.8209 137.564 74.8879L161.617 77.8332H161.62C165.186 77.8428 168.603 79.2655 171.122 81.7896C173.641 84.3137 175.057 87.7333 175.059 91.2993V91.5146Z" fill="#F24E1E"/>
<path d="M156.637 46.4355H127.809C127.425 46.4354 127.046 46.5109 126.692 46.6576C126.337 46.8042 126.016 47.0193 125.744 47.2904C125.473 47.5615 125.258 47.8833 125.112 48.2375C124.965 48.5918 124.89 48.9714 124.89 49.3548V78.1827C124.89 78.5661 124.965 78.9458 125.112 79.3C125.258 79.6542 125.473 79.9761 125.744 80.2472C126.016 80.5183 126.337 80.7333 126.692 80.88C127.046 81.0267 127.425 81.1021 127.809 81.102H156.637C157.02 81.1021 157.4 81.0267 157.754 80.88C158.108 80.7334 158.43 80.5183 158.701 80.2472C158.972 79.9761 159.187 79.6543 159.334 79.3C159.481 78.9458 159.556 78.5661 159.556 78.1827V49.3548C159.556 48.9714 159.481 48.5918 159.334 48.2375C159.187 47.8833 158.972 47.5614 158.701 47.2903C158.43 47.0192 158.108 46.8042 157.754 46.6576C157.4 46.5109 157.02 46.4354 156.637 46.4355Z" fill="#CCCCCC"/>
<path d="M150.144 67.9919L136.533 70.6425C135.726 70.7988 134.89 70.6284 134.208 70.1688C133.526 69.7092 133.054 68.9978 132.896 68.1908L131.85 62.8181C131.693 62.0107 131.864 61.1743 132.323 60.4924C132.783 59.8105 133.494 59.3388 134.301 59.1807L147.912 56.5301C148.72 56.3738 149.556 56.5442 150.238 57.0038C150.92 57.4634 151.392 58.1748 151.55 58.9818L152.596 64.3545C152.752 65.1619 152.582 65.9983 152.122 66.6802C151.663 67.3621 150.951 67.8338 150.144 67.9919Z" fill="#3F3D56"/>
<path d="M147.421 61.6446L137.034 63.6673C136.844 63.7043 136.647 63.6644 136.487 63.5562C136.326 63.448 136.215 63.2805 136.178 63.0905C136.141 62.9005 136.181 62.7036 136.289 62.5431C136.397 62.3826 136.565 62.2716 136.755 62.2346L147.142 60.2118C147.332 60.1748 147.529 60.2148 147.69 60.323C147.85 60.4312 147.961 60.5987 147.998 60.7887C148.035 60.9787 147.995 61.1756 147.887 61.3361C147.779 61.4966 147.611 61.6076 147.421 61.6446Z" fill="white"/>
<path d="M145.402 64.6402L140.029 65.6864C139.839 65.7234 139.643 65.6834 139.482 65.5752C139.322 65.4671 139.211 65.2995 139.174 65.1096C139.137 64.9196 139.177 64.7227 139.285 64.5622C139.393 64.4016 139.56 64.2907 139.75 64.2537L145.123 63.2074C145.217 63.1891 145.314 63.1895 145.408 63.2086C145.502 63.2276 145.591 63.265 145.671 63.3186C145.75 63.3722 145.818 63.4409 145.871 63.5208C145.924 63.6007 145.961 63.6902 145.979 63.7843C145.997 63.8784 145.997 63.9751 145.978 64.069C145.959 64.163 145.921 64.2522 145.868 64.3317C145.814 64.4112 145.746 64.4793 145.666 64.5322C145.586 64.5852 145.496 64.6218 145.402 64.6402Z" fill="white"/>
<path d="M159.556 49.3548V53.1864H124.89V49.3548C124.89 48.9714 124.965 48.5918 125.112 48.2375C125.258 47.8833 125.473 47.5615 125.744 47.2904C126.016 47.0193 126.337 46.8042 126.692 46.6576C127.046 46.5109 127.425 46.4354 127.809 46.4355H156.637C157.02 46.4354 157.4 46.5109 157.754 46.6576C158.108 46.8042 158.43 47.0193 158.701 47.2904C158.972 47.5615 159.187 47.8833 159.334 48.2375C159.481 48.5918 159.556 48.9714 159.556 49.3548Z" fill="#B3B3B3"/>
<path d="M228.782 54.3862C228.582 53.7402 228.242 53.1459 227.788 52.6452C227.333 52.1445 226.774 51.7496 226.15 51.4883C225.526 51.2269 224.853 51.1056 224.177 51.1327C223.501 51.1598 222.84 51.3348 222.239 51.6453L182.578 37.4158L180.832 47.3236L220.366 58.1953C220.954 59.1701 221.88 59.8951 222.967 60.2331C224.055 60.571 225.228 60.4983 226.266 60.0288C227.303 59.5593 228.132 58.7256 228.596 57.6856C229.06 56.6456 229.126 55.4717 228.782 54.3862Z" fill="#FFB8B8"/>
<path opacity="0.2" d="M228.782 54.3862C228.582 53.7402 228.242 53.1459 227.788 52.6452C227.333 52.1445 226.774 51.7496 226.15 51.4883C225.526 51.2269 224.853 51.1056 224.177 51.1327C223.501 51.1598 222.84 51.3348 222.239 51.6453L182.578 37.4158L180.832 47.3236L220.366 58.1953C220.954 59.1701 221.88 59.8951 222.967 60.2331C224.055 60.571 225.228 60.4983 226.266 60.0288C227.303 59.5593 228.132 58.7256 228.596 57.6856C229.06 56.6456 229.126 55.4717 228.782 54.3862Z" fill="black"/>
<path d="M189.618 39.2212L185.873 49.0054C185.766 49.2838 185.601 49.5359 185.388 49.7447C185.175 49.9534 184.92 50.1138 184.64 50.215C184.359 50.3162 184.06 50.3558 183.763 50.331C183.466 50.3063 183.178 50.2178 182.918 50.0716L173.816 44.9486C172.395 44.3952 171.251 43.3009 170.636 41.9056C170.02 40.5104 169.983 38.9279 170.532 37.5053C171.082 36.0826 172.173 34.9358 173.566 34.3163C174.96 33.6968 176.542 33.6551 177.966 34.2004L188.13 36.4547C188.421 36.5193 188.695 36.6459 188.933 36.8258C189.17 37.0058 189.366 37.2348 189.508 37.4973C189.649 37.7599 189.732 38.0497 189.751 38.3472C189.77 38.6447 189.724 38.9428 189.618 39.2212Z" fill="#F24E1E"/>
<path d="M231.903 63.4458L217.692 69.9054L219.558 76.9295C223.161 90.4937 224.117 104.625 222.374 118.551L232.765 120.721L241.378 98.7582L238.363 73.7811L231.903 63.4458Z" fill="#F24E1E"/>
<path d="M259.787 95.9591C250.45 95.9591 242.841 102.747 242.472 111.247H277.103C276.734 102.747 269.125 95.9591 259.787 95.9591Z" fill="#3F3D56"/>
<path d="M252.519 97.4239C252.033 59.0546 230.181 62.5845 230.181 62.5845C230.181 62.5845 230.59 74.5276 230.786 74.899C244.711 101.245 221.73 132.133 192.476 126.45C191.925 126.343 191.395 126.235 190.887 126.124C187.18 125.35 183.908 123.194 181.735 120.093C179.562 116.992 178.651 113.18 179.189 109.431C182.071 86.2908 167.738 86.7003 167.738 86.7003H146.78L135.897 76.905C135.513 76.5593 135.05 76.3129 134.548 76.1875C134.047 76.062 133.522 76.0613 133.021 76.1854C132.519 76.3095 132.055 76.5547 131.67 76.8994C131.285 77.2441 130.99 77.6779 130.812 78.1629L129.411 81.9633C129.411 81.9633 108.741 84.1165 110.463 104.357H116.854C116.838 104.932 116.861 105.507 116.923 106.079L164.616 105.691C167.412 105.669 169.88 107.934 169.891 110.73C169.894 111.41 169.76 112.085 169.496 112.712C169.232 113.34 168.845 113.907 168.357 114.382C167.868 114.856 167.289 115.227 166.655 115.472C166.02 115.717 165.342 115.832 164.661 115.81L156.972 115.553C154.604 126.104 160.417 133.209 166.823 137.677C172.854 141.823 180.011 144.021 187.329 143.975H208.218C235.349 143.975 240.086 121.151 240.086 121.151C254.297 115.123 252.519 97.4239 252.519 97.4239Z" fill="#3F3D56"/>
<path d="M258.495 156.464C271.874 156.464 282.719 145.619 282.719 132.241C282.719 118.862 271.874 108.017 258.495 108.017C245.117 108.017 234.272 118.862 234.272 132.241C234.272 145.619 245.117 156.464 258.495 156.464Z" fill="#3F3D56"/>
<path d="M258.495 138.177C261.774 138.177 264.433 135.519 264.433 132.24C264.433 128.961 261.774 126.303 258.495 126.303C255.216 126.303 252.558 128.961 252.558 132.24C252.558 135.519 255.216 138.177 258.495 138.177Z" fill="white"/>
<path d="M136.194 156.464C151.594 156.464 164.078 143.98 164.078 128.58C164.078 113.18 151.594 100.696 136.194 100.696C120.794 100.696 108.31 113.18 108.31 128.58C108.31 143.98 120.794 156.464 136.194 156.464Z" fill="#3F3D56"/>
<path d="M136.194 135.414C139.968 135.414 143.028 132.354 143.028 128.58C143.028 124.805 139.968 121.746 136.194 121.746C132.419 121.746 129.36 124.805 129.36 128.58C129.36 132.354 132.419 135.414 136.194 135.414Z" fill="white"/>
<path d="M217.733 71.814L212.62 57.9261C212.353 57.2023 212.232 56.4331 212.263 55.6624C212.293 54.8917 212.476 54.1346 212.799 53.4344C213.122 52.7341 213.581 52.1045 214.147 51.5813C214.714 51.0581 215.378 50.6517 216.102 50.3852L230.761 44.9888C232.035 44.5198 233.388 44.3063 234.744 44.3604C236.1 44.4145 237.432 44.7351 238.664 45.3041C239.897 45.873 241.005 46.679 241.925 47.6762C242.846 48.6733 243.561 49.842 244.03 51.1155C244.453 52.2586 244.669 53.4678 244.668 54.6866C244.662 56.2341 244.312 57.761 243.643 59.1562C242.973 60.5514 242.001 61.78 240.797 62.7525C239.928 63.4501 238.95 64.0012 237.903 64.3842L217.733 71.814Z" fill="#3F3D56"/>
<path d="M244.452 54.6865C244.451 56.2025 244.11 57.699 243.454 59.0658C242.798 60.4326 241.844 61.635 240.663 62.5844C238.849 62.1062 237.162 61.2387 235.718 60.0425C234.274 58.8462 233.108 57.3498 232.3 55.6572C231.493 53.9647 231.064 52.1166 231.043 50.2415C231.022 48.3664 231.41 46.5092 232.179 44.799C233.656 44.4778 235.186 44.4915 236.658 44.8391C238.129 45.1867 239.503 45.8593 240.68 46.8076C241.858 47.7559 242.807 48.9558 243.46 50.3192C244.113 51.6826 244.452 53.1749 244.452 54.6865Z" fill="#F24E1E"/>
<path d="M114.124 107.156C117.453 107.156 120.153 103.878 120.153 99.8348C120.153 95.7916 117.453 92.5139 114.124 92.5139C110.794 92.5139 108.095 95.7916 108.095 99.8348C108.095 103.878 110.794 107.156 114.124 107.156Z" fill="#F24E1E"/>
<path d="M193.818 125.749H199.098L201.61 112.056L193.817 112.056L193.818 125.749Z" fill="#FFB8B8"/>
<path d="M192.471 124.025L202.869 124.025H202.869C203.739 124.025 204.601 124.196 205.405 124.529C206.209 124.862 206.939 125.35 207.555 125.966C208.17 126.581 208.658 127.311 208.991 128.115C209.324 128.919 209.495 129.781 209.495 130.651V130.866L192.472 130.867L192.471 124.025Z" fill="#2F2E41"/>
<path d="M199.946 120.129C199.885 120.129 199.823 120.126 199.761 120.12L192.455 119.588C192.159 119.561 191.874 119.466 191.621 119.311C191.368 119.156 191.154 118.944 190.995 118.694C190.837 118.443 190.738 118.159 190.707 117.864C190.675 117.569 190.712 117.27 190.814 116.992L200.593 95.0227C200.662 94.8268 200.691 94.6186 200.676 94.4112C200.662 94.2038 200.605 94.0016 200.508 93.8174C200.412 93.6311 200.277 93.4672 200.113 93.3366C199.949 93.2059 199.759 93.1116 199.556 93.0596C194.958 91.8577 183.161 88.6573 172.948 84.9128C168.573 83.3084 165.817 80.9899 164.758 78.0217C163.361 74.1085 165.427 70.5398 165.516 70.39L165.585 70.2727L175.195 71.1462L185.613 72.0323L208.442 84.2744C210.355 85.3089 211.808 87.026 212.512 89.0837C213.216 91.1414 213.119 93.3887 212.24 95.378L201.715 118.98C201.562 119.322 201.314 119.613 201.001 119.816C200.687 120.02 200.321 120.129 199.946 120.129Z" fill="#2F2E41"/>
<path d="M176.866 27.6821C182.707 27.6821 187.443 22.9466 187.443 17.1051C187.443 11.2637 182.707 6.5282 176.866 6.5282C171.024 6.5282 166.289 11.2637 166.289 17.1051C166.289 22.9466 171.024 27.6821 176.866 27.6821Z" fill="#FFB8B8"/>
<path d="M190.804 127.041H196.083L198.595 113.348L190.803 113.348L190.804 127.041Z" fill="#FFB8B8"/>
<path d="M189.457 125.317L199.854 125.317H199.855C200.725 125.317 201.586 125.488 202.39 125.821C203.194 126.154 203.925 126.642 204.54 127.258C205.155 127.873 205.643 128.603 205.976 129.407C206.309 130.211 206.481 131.073 206.481 131.943V132.158L189.457 132.159L189.457 125.317Z" fill="#2F2E41"/>
<path d="M196.932 121.421C196.87 121.421 196.809 121.418 196.747 121.412L189.44 120.88C189.145 120.853 188.86 120.758 188.607 120.603C188.354 120.448 188.14 120.236 187.981 119.986C187.823 119.735 187.724 119.451 187.692 119.156C187.661 118.861 187.698 118.562 187.8 118.284L197.578 96.3147C197.648 96.1188 197.677 95.9106 197.662 95.7032C197.647 95.4958 197.59 95.2936 197.494 95.1094C197.397 94.923 197.263 94.7592 197.099 94.6286C196.934 94.4979 196.745 94.4036 196.541 94.3516C191.943 93.1497 180.146 89.9493 169.934 86.2048C165.558 84.6004 162.803 82.2819 161.743 79.3137C160.347 75.4005 162.413 71.8318 162.502 71.682L162.571 71.5647L172.181 72.4382L182.598 73.3243L205.428 85.5664C207.341 86.6009 208.794 88.318 209.498 90.3757C210.201 92.4334 210.104 94.6807 209.225 96.67L198.7 120.272C198.548 120.614 198.3 120.905 197.986 121.108C197.672 121.312 197.306 121.421 196.932 121.421Z" fill="#2F2E41"/>
<path d="M180.128 33.6797L168.931 29.804C168.931 29.804 161.902 35.2042 165.279 48.6007C167.042 55.5139 166.528 62.8112 163.815 69.4093C163.488 70.2257 163.111 71.0212 162.687 71.7913C162.687 71.7913 175.176 86.8637 186.803 75.667L182.281 53.9198C182.281 53.9198 189.387 39.4933 180.128 33.6797Z" fill="#F24E1E"/>
<path d="M178.179 28.0419C176.674 25.7886 175.486 22.6642 177.143 20.5204C178.779 18.4041 182.006 18.7159 184.512 17.7795C188.002 16.4752 190.026 12.3753 189.394 8.70348C188.763 5.03171 185.816 1.98791 182.304 0.742492C178.793 -0.50293 174.833 -0.0978898 171.395 1.33629C167.162 3.10178 163.531 6.51701 162.008 10.8432C160.486 15.1694 161.3 20.3638 164.458 23.689C167.845 27.254 173.16 28.2041 178.076 28.1464" fill="#2F2E41"/>
<path d="M168.34 8.82126C166.443 10.3655 163.549 9.6796 161.513 8.32436C159.477 6.96911 157.825 5.03933 155.622 3.97676C151.737 2.10351 147.042 3.34879 143.261 5.42376C139.481 7.49873 136.13 10.3653 132.138 11.9937C128.145 13.622 123.049 13.7025 120.026 10.6278C119.282 12.7835 119.221 15.1163 119.852 17.3079C120.482 19.4994 121.774 21.443 123.55 22.8735C125.326 24.3039 127.5 25.1515 129.776 25.3007C132.051 25.4499 134.318 24.8933 136.265 23.707C140.64 21.042 143.057 15.4543 147.964 13.9834C150.679 13.1695 153.595 13.8251 156.34 14.5351C159.084 15.2452 161.946 16.0124 164.715 15.4079C167.485 14.8034 170.075 12.3146 169.723 9.50179L168.34 8.82126Z" fill="#2F2E41"/>
<path d="M228.255 53.9554C227.977 53.339 227.567 52.7911 227.054 52.3503C226.541 51.9096 225.938 51.5866 225.286 51.4043C224.635 51.2219 223.952 51.1846 223.285 51.2949C222.617 51.4052 221.982 51.6604 221.424 52.0427L180.311 42.8153L179.8 52.863L220.374 58.7737C221.078 59.6685 222.086 60.2738 223.207 60.475C224.328 60.6762 225.483 60.4592 226.455 59.8653C227.426 59.2714 228.146 58.3418 228.478 57.2525C228.81 56.1633 228.731 54.9901 228.255 53.9554Z" fill="#FFB8B8"/>
<path d="M187.52 43.7384L185.01 53.9099C184.939 54.1994 184.806 54.47 184.621 54.7034C184.435 54.9368 184.202 55.1275 183.936 55.2625C183.67 55.3975 183.378 55.4736 183.081 55.4857C182.783 55.4978 182.486 55.4455 182.21 55.3325L172.545 51.3717C171.066 50.9988 169.795 50.0542 169.011 48.7452C168.227 47.4362 167.995 45.8697 168.364 44.3894C168.734 42.9091 169.676 41.636 170.983 40.8494C172.291 40.0628 173.857 39.827 175.338 40.1936L185.702 41.1766C185.999 41.2048 186.286 41.2967 186.544 41.4459C186.802 41.5951 187.025 41.7982 187.198 42.0413C187.37 42.2844 187.488 42.5619 187.544 42.8547C187.599 43.1476 187.591 43.449 187.52 43.7384V43.7384Z" fill="#F24E1E"/>
<path d="M223.506 61.9386C225.171 61.9386 226.52 60.589 226.52 58.9241C226.52 57.2593 225.171 55.9097 223.506 55.9097C221.841 55.9097 220.492 57.2593 220.492 58.9241C220.492 60.589 221.841 61.9386 223.506 61.9386Z" fill="#F24E1E"/>
<path d="M357 156.679C357 156.793 356.954 156.903 356.874 156.983C356.793 157.064 356.683 157.109 356.569 157.11H0.430639C0.316427 157.11 0.206892 157.064 0.126131 156.984C0.0453705 156.903 0 156.793 0 156.679C0 156.565 0.0453705 156.455 0.126131 156.375C0.206892 156.294 0.316427 156.249 0.430639 156.249H356.569C356.683 156.249 356.793 156.294 356.874 156.375C356.954 156.456 357 156.565 357 156.679Z" fill="#3F3D56"/>
</g>
<defs>
<clipPath id="clip0_2520_146">
<rect width="357" height="157.11" fill="white" transform="translate(0 0.00012207)"/>
</clipPath>
</defs>
</svg>
