<svg preserveAspectRatio="xMidYMid meet" viewBox="0 0 474 298" fill="none" xmlns="http://www.w3.org/2000/svg">
<path d="M324.973 254.948C369.208 254.347 413.441 254.691 457.672 255.981C461.477 256.092 465.425 256.235 468.786 257.395C472.146 258.555 474.732 261.043 473.812 263.434C456.546 264.022 439.262 264.204 421.96 263.979C418.192 266.104 414.055 269.304 416.37 272.169C417.973 274.152 421.928 274.742 425.387 274.747C431.652 274.756 437.942 273.572 444.114 274.266C450.287 274.961 456.445 278.698 454.637 282.578C453.264 285.524 448.055 286.982 443.315 287.243C438.574 287.503 433.72 286.962 429.087 287.659C424.683 288.322 420.868 290.045 416.747 291.248C410.247 293.145 403.041 293.731 395.951 294.23C341.51 298.059 286.618 298.028 231.856 297.993C209.687 297.979 187.216 297.941 165.807 294.215C153.604 292.091 141.91 288.793 129.553 287.082C114.793 285.038 99.5374 285.315 84.4427 285.376C57.9435 285.484 31.4666 284.896 5.01205 283.613C3.0434 283.517 0.626938 283.194 0.0956547 281.964C-0.52437 280.529 1.99195 279.409 4.11893 278.836C16.1713 275.624 28.4263 273.52 40.7681 272.543C47.0186 272.037 53.4595 271.779 59.2083 270.113C64.9571 268.448 69.9795 264.955 69.9255 260.88C69.909 259.638 69.4535 258.308 70.3545 257.21C71.5509 255.752 74.4946 255.418 77.0344 255.259C105.189 253.497 133.498 252.762 161.78 253.057C171.729 253.161 181.719 253.391 191.597 252.62C199.691 251.988 207.619 250.69 215.596 249.601C226.303 248.138 272.901 240.562 279.699 246.709C284.787 251.311 274.281 252.304 287.929 254.182C299.812 255.817 312.921 255.111 324.973 254.948Z" fill="#F2F2F2"/>
<path d="M152.766 233.93C152.766 233.93 136.362 271.297 150.322 271.297C164.283 271.297 340.191 272.101 345.077 261.654C348.501 254.335 346.613 228.279 345.176 213.334C344.897 210.429 343.662 207.758 341.725 205.869C339.787 203.981 337.295 203.018 334.76 203.18C296.716 205.597 154.591 214.556 155.209 213.438C156.43 211.228 155.558 211.831 155.558 211.831C155.558 211.831 149.973 232.323 152.766 233.93Z" fill="#3F3D56"/>
<path opacity="0.1" d="M345.525 213.334C345.246 210.429 344.011 207.758 342.074 205.869C340.136 203.981 337.644 203.018 335.109 203.18C297.066 205.598 154.94 214.556 155.558 213.438C156.779 211.228 155.907 211.831 155.907 211.831C155.907 211.831 154.66 216.406 153.64 221.401C153.784 221.385 153.892 221.542 153.421 222.496C153.379 222.712 153.338 222.927 153.297 223.143C158.99 223.79 295.499 215.185 332.666 212.823C335.201 212.662 337.693 213.624 339.63 215.512C341.568 217.401 342.803 220.072 343.082 222.977C344.15 234.089 345.467 251.34 344.666 262.468C344.975 262.275 345.236 261.995 345.426 261.654C348.85 254.335 346.962 228.279 345.525 213.334Z" fill="black"/>
<path d="M172.318 177.929C170.499 177.287 168.198 176.459 168.405 175.108C168.516 174.39 169.35 173.83 169.954 173.228C171.12 172.068 171.434 170.434 170.182 169.314C168.931 168.194 165.916 168.044 164.811 169.23C164.243 169.839 164.278 170.604 163.984 171.293C163.069 173.442 159.367 174.386 156.222 175.221C153.077 176.056 149.559 177.609 149.854 179.832C150.177 182.257 155.028 184.409 153.076 186.477C152.369 187.227 150.88 187.645 150.563 188.503C150.34 189.107 150.788 189.72 151.222 190.272L154.312 194.19C155.541 195.749 156.807 197.445 156.396 199.181C155.58 202.62 148.947 203.936 143.69 203.55C141.765 203.408 139.502 203.215 138.179 204.146C137.16 204.864 137.162 205.981 137.5 206.938C138.373 209.401 141.163 211.534 144.734 212.467C140.731 213.376 139.16 217.208 141.923 219.319C140.342 219.945 138.632 220.002 137.022 219.481C135.655 220.929 136.459 222.917 138.192 224.184C139.926 225.451 142.381 226.164 144.759 226.841L142.534 229.236C144.144 230.684 147.621 230.173 149.966 229.258C152.311 228.343 154.856 227.114 157.483 227.593C159.947 228.042 161.811 229.934 164.32 229.61C166.265 229.359 167.19 227.921 167.796 226.679L170.371 221.401C174.036 222.061 177.891 219.17 176.418 216.864C180.52 217.371 184.558 214.304 183.211 211.704C185.396 213.644 186.934 215.897 187.687 218.26C188.023 219.316 188.227 220.433 189.143 221.327C189.742 221.84 190.436 222.187 191.17 222.34C191.904 222.492 192.659 222.448 193.376 222.209C192.628 223.879 192.022 225.827 193.559 227.244C195.096 228.66 199.532 228.259 199.336 226.522C201.68 227.682 204.307 228.772 207.237 228.858C210.166 228.945 213.372 227.661 213.639 225.74C217.767 227.307 222.086 228.107 226.433 228.11C226.803 226.824 229.386 226.408 231.317 226.723C233.247 227.037 235.038 227.792 237.027 227.793C239.016 227.795 241.155 226.417 240.137 225.292C244.325 226.301 248.625 226.551 252.88 226.033C256.894 225.542 260.698 224.376 264.763 224.125C268.886 223.836 273.014 224.586 276.859 226.324C278.192 226.967 279.848 227.777 281.312 227.272C282.142 226.986 282.546 226.368 283.11 225.875C285.538 223.755 290.502 224.162 294.333 224.995C298.163 225.829 302.618 226.833 305.974 225.359C307.241 224.803 308.174 223.944 309.521 223.477C314.346 221.805 320.122 226.09 325.243 224.857C326.911 224.455 328.264 223.495 330.031 223.377C333.165 223.166 335.236 225.611 338.282 226.137C341.444 226.683 344.871 224.469 344.1 222.378C347.138 222.456 350.168 221.971 353.073 220.942L351.638 217.969C355.214 217.902 357.845 214.951 356.188 212.864C359.774 212.078 362.61 209.962 363.347 207.522C364.085 205.082 362.694 202.412 359.838 200.783C358.152 199.821 355.938 199.145 354.974 197.821C354.28 196.867 354.381 195.758 354.111 194.716C353.52 192.434 350.96 190.42 347.652 189.634C346.215 189.293 344.643 189.164 343.342 188.637C342.042 188.11 341.102 186.969 341.853 186.094C342.25 185.63 343.015 185.357 343.51 184.937C345.517 183.231 342.076 181.072 339.139 180.115L346.153 179.851L347.659 171.99C344.884 174.588 337.686 174.041 335.883 171.096C338.136 171.947 341.157 170.858 342.259 169.31C343.36 167.762 343.09 165.961 342.796 164.263C342.768 163.841 342.646 163.434 342.441 163.083C342.236 162.731 341.955 162.447 341.627 162.258C340.94 161.881 339.847 161.724 339.621 161.155C339.392 160.574 340.28 160.061 340.411 159.467C340.664 158.328 338.389 157.825 336.852 157.274C333.226 155.974 331.47 152.319 327.345 152.438C323.252 152.556 322.108 156.154 322.105 158.85C322.102 161.547 320.717 165.153 316.62 165.103C314.984 165.084 313.558 164.407 312.252 163.758L300.519 157.933C298.969 157.103 297.356 156.437 295.701 155.944C293.334 155.308 290.72 155.233 288.166 155.167L271.753 154.737C270.917 154.662 270.076 154.745 269.263 154.984C268.401 155.315 267.982 155.968 267.463 156.529C265.178 159 259.804 159.967 255.926 158.607C254.898 158.246 253.977 157.749 252.888 157.477C249.456 156.621 245.855 158.205 242.289 158.777C236.444 159.715 229.181 158.1 224.967 160.927C223.562 161.869 222.817 163.157 221.515 164.161C220.213 165.166 217.864 165.847 216.222 165.088C216.428 166.931 216.616 168.854 215.532 170.559C214.449 172.263 211.669 173.655 208.939 173.225C207.49 172.784 207.604 171.382 208.289 170.432C208.975 169.483 210.026 168.514 209.684 167.487C209.345 166.469 207.794 165.877 206.634 165.167C205.474 164.457 204.7 163.112 205.932 162.457C205.102 161.228 202.118 161.378 200.805 162.408C199.492 163.438 199.361 164.889 199.218 166.23C199.075 167.571 198.763 169.04 197.242 169.938C194.65 171.468 189.674 170.674 187.955 172.666C187.409 173.299 187.376 174.063 187.064 174.761C185.669 177.877 179.649 178.684 174.728 178.939C174.624 179.587 174.601 180.249 174.659 180.905C176.343 180.066 173.538 178.359 172.318 177.929Z" fill="#61AB43"/>
<path opacity="0.1" d="M342.796 174.369C343.09 176.068 343.36 177.869 342.259 179.417C342.095 179.641 341.911 179.842 341.708 180.018C343.189 179.962 344.671 179.906 346.153 179.851C346.655 177.23 347.157 174.61 347.659 171.99C346.509 173.066 344.6 173.601 342.631 173.651C342.701 173.886 342.756 174.126 342.796 174.369Z" fill="black"/>
<path opacity="0.1" d="M344.09 183.629C343.915 182.566 342.393 181.488 340.69 180.717C339.19 181.537 337.484 181.71 335.883 181.203C337.126 183.234 340.935 184.124 344.09 183.629Z" fill="black"/>
<path opacity="0.1" d="M346.268 189.356C346.23 189.557 346.191 189.757 346.153 189.958C343.815 190.046 341.477 190.134 339.139 190.222C342.076 191.179 345.517 193.338 343.51 195.044C343.015 195.464 342.25 195.737 341.853 196.2C341.102 197.076 342.042 198.217 343.342 198.744C344.643 199.27 346.215 199.4 347.652 199.741C350.96 200.527 353.521 202.541 354.111 204.823C354.381 205.865 354.28 206.974 354.974 207.928C355.938 209.252 358.152 209.928 359.838 210.89C360 210.983 360.156 211.08 360.309 211.179C361.833 210.186 362.929 208.907 363.347 207.522C364.085 205.082 362.694 202.413 359.838 200.783C358.152 199.822 355.938 199.145 354.974 197.821C354.28 196.867 354.381 195.758 354.111 194.716C353.521 192.434 350.96 190.42 347.652 189.634C347.2 189.527 346.734 189.441 346.268 189.356Z" fill="black"/>
<path opacity="0.1" d="M140.789 225.556C141.335 224.218 142.729 223.03 144.734 222.574C142.818 222.116 141.014 221.18 139.449 219.83C138.629 219.858 137.811 219.74 137.022 219.481C135.655 220.929 136.459 222.917 138.192 224.184C139.01 224.753 139.881 225.214 140.789 225.556Z" fill="black"/>
<path opacity="0.1" d="M153.16 186.378C154.159 185.948 155.182 185.597 156.222 185.328C159.367 184.493 163.069 183.549 163.984 181.4C164.278 180.711 164.243 179.946 164.811 179.336C165.916 178.151 168.931 178.301 170.182 179.421C171.434 180.541 171.12 182.175 169.954 183.335C169.35 183.937 168.516 184.497 168.405 185.215C168.198 186.566 170.499 187.394 172.318 188.036C173.174 188.353 173.975 188.84 174.686 189.474C174.701 189.33 174.716 189.188 174.728 189.046C179.649 188.791 185.669 187.984 187.064 184.868C187.376 184.17 187.409 183.406 187.955 182.773C189.674 180.781 194.65 181.575 197.242 180.045C198.763 179.147 199.075 177.678 199.218 176.337C199.361 174.996 199.492 173.545 200.805 172.515C202.118 171.485 205.102 171.335 205.932 172.564C204.7 173.219 205.474 174.564 206.634 175.274C207.794 175.984 209.345 176.576 209.684 177.594C210.026 178.621 208.975 179.59 208.289 180.539C207.604 181.489 207.49 182.891 208.939 183.332C211.669 183.762 214.449 182.37 215.532 180.666C216.616 178.961 216.428 177.038 216.222 175.195C217.864 175.954 220.213 175.273 221.515 174.268C222.817 173.264 223.562 171.976 224.967 171.034C229.181 168.207 236.444 169.822 242.289 168.884C245.855 168.312 249.456 166.728 252.888 167.584C253.977 167.856 254.898 168.353 255.926 168.714C259.804 170.074 265.178 169.107 267.463 166.636C267.982 166.075 268.401 165.422 269.263 165.091C270.076 164.852 270.917 164.769 271.753 164.844C277.224 164.987 282.695 165.13 288.166 165.274C290.72 165.34 293.334 165.415 295.701 166.051C297.356 166.544 298.969 167.21 300.519 168.04C304.43 169.982 308.341 171.923 312.252 173.865C313.558 174.514 314.984 175.191 316.62 175.21C320.717 175.26 322.102 171.654 322.105 168.957C322.108 166.261 323.252 162.663 327.345 162.545C331.47 162.426 333.226 166.081 336.852 167.381C338.389 167.932 340.664 168.435 340.411 169.574C340.294 170.103 339.579 170.569 339.586 171.074C340.607 170.798 341.536 170.185 342.259 169.31C343.36 167.762 343.09 165.961 342.796 164.263C342.768 163.841 342.646 163.434 342.441 163.083C342.236 162.732 341.955 162.447 341.627 162.258C340.94 161.881 339.847 161.724 339.621 161.155C339.392 160.575 340.28 160.061 340.411 159.467C340.664 158.328 338.389 157.825 336.852 157.274C333.226 155.974 331.47 152.319 327.345 152.438C323.252 152.556 322.108 156.154 322.105 158.85C322.102 161.547 320.717 165.153 316.62 165.104C314.984 165.084 313.558 164.407 312.252 163.758C308.341 161.817 304.43 159.875 300.519 157.933C298.969 157.103 297.356 156.437 295.701 155.944C293.334 155.309 290.72 155.233 288.166 155.167C282.695 155.024 277.224 154.88 271.753 154.737C270.917 154.662 270.076 154.745 269.263 154.984C268.401 155.315 267.982 155.968 267.463 156.53C265.178 159 259.804 159.967 255.926 158.607C254.898 158.246 253.977 157.749 252.888 157.477C249.456 156.621 245.855 158.205 242.289 158.777C236.444 159.715 229.181 158.101 224.967 160.927C223.562 161.869 222.817 163.157 221.515 164.161C220.213 165.166 217.864 165.847 216.222 165.088C216.428 166.931 216.616 168.854 215.533 170.559C214.449 172.264 211.669 173.655 208.939 173.225C207.49 172.784 207.604 171.382 208.289 170.433C208.975 169.484 210.026 168.514 209.684 167.487C209.345 166.469 207.794 165.877 206.634 165.167C205.474 164.457 204.7 163.112 205.932 162.457C205.102 161.228 202.118 161.378 200.805 162.408C199.492 163.438 199.361 164.889 199.218 166.23C199.075 167.571 198.763 169.041 197.242 169.938C194.65 171.468 189.674 170.674 187.955 172.667C187.409 173.3 187.376 174.063 187.064 174.761C185.669 177.878 179.649 178.685 174.728 178.939C174.716 179.081 174.701 179.224 174.686 179.367C173.975 178.733 173.174 178.246 172.318 177.929C170.499 177.288 168.198 176.459 168.405 175.108C168.516 174.39 169.35 173.83 169.954 173.229C171.12 172.069 171.434 170.435 170.182 169.314C168.931 168.194 165.916 168.044 164.811 169.23C164.243 169.839 164.278 170.604 163.984 171.293C163.069 173.442 159.367 174.386 156.222 175.221C153.077 176.056 149.559 177.609 149.854 179.832C150.172 182.219 154.87 184.34 153.16 186.378Z" fill="black"/>
<path opacity="0.1" d="M144.734 212.467C143.869 212.651 143.043 213.023 142.299 213.565C142.77 213.588 143.24 213.624 143.69 213.657C148.947 214.043 155.58 212.727 156.396 209.288C156.807 207.552 155.541 205.856 154.312 204.297C153.818 203.671 153.324 203.044 152.829 202.417C150.257 203.423 146.743 203.774 143.69 203.55C141.765 203.409 139.502 203.215 138.179 204.146C137.16 204.864 137.162 205.982 137.5 206.938C138.373 209.401 141.163 211.534 144.734 212.467Z" fill="black"/>
<path d="M251.802 196.739C280.716 196.739 304.155 178.93 304.155 156.961C304.155 134.992 280.716 117.183 251.802 117.183C222.888 117.183 199.448 134.992 199.448 156.961C199.448 178.93 222.888 196.739 251.802 196.739Z" fill="#EA565C"/>
<path opacity="0.2" d="M234.002 154.149C234.002 154.149 210.268 156.961 217.249 145.309C224.229 133.657 232.955 129.639 237.143 132.853C241.331 136.068 243.076 144.907 242.378 144.907C241.68 144.907 231.558 138.077 228.068 143.3C224.578 148.523 234.002 154.149 234.002 154.149Z" fill="white"/>
<path opacity="0.2" d="M254.566 155.287C254.566 155.287 274.165 170.951 262.275 174.558C250.386 178.164 241.492 174.669 240.133 169.089C238.774 163.509 242.452 155.494 242.981 156.017C243.511 156.541 247.326 169.314 252.929 167.968C258.533 166.622 254.566 155.287 254.566 155.287Z" fill="white"/>
<path opacity="0.2" d="M259.142 145.471C259.142 145.471 260.688 118.062 269.505 127.928C278.322 137.793 280.309 148.367 276.858 152.586C273.406 156.804 265.544 157.312 265.661 156.519C265.777 155.727 273.314 145.376 269.422 140.544C265.53 135.712 259.142 145.471 259.142 145.471Z" fill="white"/>
<path d="M188.629 193.525C217.543 193.525 240.982 175.716 240.982 153.747C240.982 131.778 217.543 113.969 188.629 113.969C159.715 113.969 136.275 131.778 136.275 153.747C136.275 175.716 159.715 193.525 188.629 193.525Z" fill="#EA565C"/>
<path opacity="0.2" d="M170.829 150.934C170.829 150.934 147.095 153.747 154.075 142.095C161.056 130.442 169.781 126.424 173.97 129.639C178.158 132.853 179.903 141.693 179.205 141.693C178.507 141.693 168.385 134.862 164.895 140.086C161.405 145.309 170.829 150.934 170.829 150.934Z" fill="white"/>
<path opacity="0.2" d="M191.393 152.073C191.393 152.073 210.992 167.737 199.102 171.343C187.213 174.949 178.319 171.454 176.96 165.875C175.601 160.295 179.279 152.28 179.808 152.803C180.338 153.327 184.152 166.099 189.756 164.754C195.36 163.408 191.393 152.073 191.393 152.073Z" fill="white"/>
<path opacity="0.2" d="M195.968 142.256C195.968 142.256 197.515 114.847 206.332 124.713C215.148 134.579 217.136 145.153 213.684 149.371C210.233 153.59 202.371 154.097 202.488 153.305C202.604 152.513 210.141 142.162 206.249 137.329C202.357 132.497 195.968 142.256 195.968 142.256Z" fill="white"/>
<path opacity="0.1" d="M215.874 119.894C227.277 127.191 234.525 138.117 234.525 150.331C234.525 172.3 211.086 190.11 182.172 190.11C172.264 190.11 163 188.018 155.101 184.385C164.208 190.213 175.965 193.726 188.803 193.726C217.717 193.726 241.157 175.917 241.157 153.948C241.157 139.506 231.028 126.863 215.874 119.894Z" fill="black"/>
<path opacity="0.1" d="M279.047 122.706C290.45 130.003 297.698 140.93 297.698 153.144C297.698 175.113 274.259 192.922 245.345 192.922C235.438 192.922 226.173 190.831 218.274 187.198C227.381 193.025 239.138 196.538 251.976 196.538C280.89 196.538 304.33 178.729 304.33 156.76C304.33 142.319 294.201 129.676 279.047 122.706Z" fill="black"/>
<path d="M156.812 146.126C156.812 146.126 201.836 90.6778 312.127 113.58C399.313 131.685 327.719 162.846 293.896 175.108C284.082 178.664 273.917 180.771 263.643 181.378C225.485 183.64 129.507 185.663 156.812 146.126Z" fill="#714B4F"/>
<path opacity="0.1" d="M293.896 162.652C284.082 166.208 273.917 168.315 263.643 168.922C232.731 170.755 163.876 172.429 153.357 151.979C140.073 185.033 227.621 183.112 263.643 180.977C273.917 180.369 284.082 178.262 293.896 174.706C318.687 165.719 363.77 146.577 351.745 129.866C343.648 142.98 312.845 155.782 293.896 162.652Z" fill="black"/>
<path opacity="0.1" d="M252.968 113.781L265.184 141.505" stroke="black" stroke-width="2" stroke-miterlimit="10"/>
<path opacity="0.1" d="M215.273 123.826L225.744 147.131" stroke="black" stroke-width="2" stroke-miterlimit="10"/>
<path opacity="0.1" d="M274.956 113.781L291.361 141.505" stroke="black" stroke-width="2" stroke-miterlimit="10"/>
<path opacity="0.1" d="M215.273 149.542L325.216 133.469" stroke="black" stroke-width="2" stroke-miterlimit="10"/>
<path opacity="0.1" d="M321.027 119.005L328.706 131.461" stroke="black" stroke-width="2" stroke-miterlimit="10"/>
<path opacity="0.1" d="M193.634 133.469L198.52 145.122" stroke="black" stroke-width="2" stroke-miterlimit="10"/>
<path d="M210.045 95.7217C210.045 95.7217 310.445 95.1988 311.366 94.153C312.287 93.1072 333.472 92.5532 337.617 99.3508C341.762 106.149 343.144 109.286 337.617 110.332C332.091 111.378 150.174 218.572 150.174 218.572C150.174 218.572 140.042 219.617 145.108 208.114C150.174 196.61 210.045 95.7217 210.045 95.7217Z" fill="#F6C964"/>
<path d="M252.196 143.534C252.196 147.861 234.069 158.4 211.709 158.4C189.349 158.4 171.223 147.861 171.223 143.534C171.223 139.207 189.349 137.507 211.709 137.507C234.069 137.507 252.196 139.207 252.196 143.534Z" fill="#61AB43"/>
<path d="M211.709 151.168C234.069 151.168 252.196 147.66 252.196 143.333C252.196 139.006 234.069 135.498 211.709 135.498C189.349 135.498 171.223 139.006 171.223 143.333C171.223 147.66 189.349 151.168 211.709 151.168Z" fill="#61AB43"/>
<path d="M301.059 136.301C301.059 140.629 282.933 151.168 260.573 151.168C238.212 151.168 220.086 140.629 220.086 136.301C220.086 131.974 238.212 130.274 260.573 130.274C282.933 130.274 301.059 131.974 301.059 136.301Z" fill="#61AB43"/>
<path d="M260.573 143.936C282.933 143.936 301.059 140.428 301.059 136.1C301.059 131.773 282.933 128.265 260.573 128.265C238.212 128.265 220.086 131.773 220.086 136.1C220.086 140.428 238.212 143.936 260.573 143.936Z" fill="#61AB43"/>
<path d="M349.922 129.069C349.922 133.396 331.796 143.936 309.436 143.936C287.076 143.936 268.949 133.396 268.949 129.069C268.949 124.742 287.076 123.042 309.436 123.042C331.796 123.042 349.922 124.742 349.922 129.069Z" fill="#61AB43"/>
<path d="M309.436 136.703C331.796 136.703 349.922 133.195 349.922 128.868C349.922 124.541 331.796 121.033 309.436 121.033C287.076 121.033 268.949 124.541 268.949 128.868C268.949 133.195 287.076 136.703 309.436 136.703Z" fill="#61AB43"/>
<path d="M160.331 131.295C160.331 131.295 143.68 128.174 152.199 112.571C160.718 96.9683 163.584 79.4776 167.301 75.5699C171.458 71.2011 257.244 -5.39564 324.076 79.363C331.157 88.4496 336.912 98.796 341.12 110.001C341.928 112.119 342.819 114.02 343.691 115.023C346.401 118.144 348.725 127.06 343.691 131.518C338.657 135.976 190.342 153.362 160.331 131.295Z" fill="#3F3D56"/>
<path d="M238.36 66.431C237.334 67.2525 236.124 67.7168 234.875 67.7684C232.95 67.7684 231.39 67.1696 231.39 66.431C231.39 65.6924 232.95 65.0936 234.875 65.0936C236.124 65.1453 237.334 65.6095 238.36 66.431Z" fill="#F2F2F2"/>
<path d="M210.479 57.9608C209.453 58.7823 208.243 59.2466 206.994 59.2982C205.069 59.2982 203.509 58.6994 203.509 57.9608C203.509 57.2222 205.069 56.6234 206.994 56.6234C208.243 56.675 209.453 57.1393 210.479 57.9608Z" fill="#F2F2F2"/>
<path d="M286.22 70.3037C285.027 70.7351 283.752 70.7623 282.547 70.3822C280.71 69.7207 279.376 68.6129 279.567 67.9079C279.759 67.203 281.403 67.1678 283.24 67.8294C284.419 68.3081 285.453 69.167 286.22 70.3037Z" fill="#F2F2F2"/>
<path d="M234.716 47.5679C233.524 47.9992 232.249 48.0265 231.043 47.6464C229.206 46.9848 227.872 45.877 228.064 45.1721C228.255 44.4671 229.9 44.432 231.737 45.0936C232.916 45.5722 233.95 46.4312 234.716 47.5679Z" fill="#F2F2F2"/>
<path d="M290.867 55.5923C289.674 56.0236 288.399 56.0509 287.194 55.6708C285.357 55.0092 284.023 53.9014 284.214 53.1965C284.406 52.4916 286.05 52.4564 287.887 53.118C289.066 53.5966 290.1 54.4556 290.867 55.5923Z" fill="#F2F2F2"/>
<path d="M279.408 54.3944C278.382 55.2159 277.172 55.6802 275.923 55.7318C273.998 55.7318 272.438 55.133 272.438 54.3944C272.438 53.6558 273.998 53.057 275.923 53.057C277.172 53.1086 278.382 53.5729 279.408 54.3944Z" fill="#F2F2F2"/>
<path d="M246.105 46.37C245.079 47.1915 243.869 47.6558 242.62 47.7074C240.695 47.7074 239.135 47.1086 239.135 46.37C239.135 45.6314 240.695 45.0326 242.62 45.0326C243.869 45.0842 245.079 45.5485 246.105 46.37Z" fill="#F2F2F2"/>
<path d="M271.663 46.37C270.637 47.1915 269.427 47.6558 268.178 47.7074C266.253 47.7074 264.693 47.1086 264.693 46.37C264.693 45.6314 266.253 45.0326 268.178 45.0326C269.427 45.0842 270.637 45.5485 271.663 46.37Z" fill="#F2F2F2"/>
<path d="M261.982 63.7562C260.956 64.5777 259.746 65.042 258.497 65.0936C256.572 65.0936 255.012 64.4949 255.012 63.7562C255.012 63.0176 256.572 62.4188 258.497 62.4188C259.746 62.4705 260.956 62.9347 261.982 63.7562Z" fill="#F2F2F2"/>
<path d="M233.824 60.6319C234.114 59.2324 234.749 57.9588 235.651 56.9629C237.087 55.4876 238.598 54.7385 239.025 55.2896C239.452 55.8408 238.634 57.4835 237.198 58.9587C236.236 59.8775 235.065 60.4584 233.824 60.6319Z" fill="#F2F2F2"/>
<path d="M216.398 55.7281C216.688 54.3286 217.323 53.0549 218.225 52.059C219.661 50.5838 221.172 49.8347 221.599 50.3858C222.026 50.9369 221.208 52.5797 219.772 54.0549C218.81 54.9737 217.639 55.5546 216.398 55.7281Z" fill="#F2F2F2"/>
<path d="M186.193 79.8014C186.484 78.4019 187.118 77.1282 188.02 76.1323C189.456 74.657 190.967 73.9079 191.394 74.4591C191.821 75.0102 191.003 76.6529 189.567 78.1281C188.605 79.047 187.434 79.6278 186.193 79.8014Z" fill="#F2F2F2"/>
<path d="M253.186 53.0533C253.477 51.6538 254.111 50.3801 255.013 49.3842C256.449 47.909 257.96 47.1599 258.387 47.711C258.814 48.2621 257.996 49.9048 256.56 51.3801C255.598 52.2989 254.427 52.8798 253.186 53.0533Z" fill="#F2F2F2"/>
<path d="M246.216 69.1021C246.506 67.7026 247.14 66.429 248.043 65.4331C249.479 63.9578 250.989 63.2087 251.417 63.7598C251.844 64.311 251.026 65.9537 249.59 67.4289C248.628 68.3478 247.456 68.9286 246.216 69.1021Z" fill="#F2F2F2"/>
<path d="M374.844 243.8C374.844 243.8 369.542 245.631 366.891 249.293C366.891 249.293 362.119 251.735 359.203 251.125C356.287 250.514 350.985 256.618 355.227 258.449C359.468 260.28 385.448 265.163 385.978 263.637C386.509 262.111 386.509 246.547 386.509 246.547L374.844 243.8Z" fill="#714B4F"/>
<path d="M416.492 241.179C416.492 241.179 411.54 244.026 409.471 248.156C409.471 248.156 405.132 251.5 402.168 251.472C399.204 251.444 394.886 258.5 399.337 259.47C403.788 260.44 430.11 260.143 430.406 258.535C430.702 256.928 428.393 241.592 428.393 241.592L416.492 241.179Z" fill="#714B4F"/>
<path d="M383.46 34.2889C390.048 34.2889 395.389 28.1402 395.389 20.5555C395.389 12.9707 390.048 6.82202 383.46 6.82202C376.871 6.82202 371.53 12.9707 371.53 20.5555C371.53 28.1402 376.871 34.2889 383.46 34.2889Z" fill="#FFB9B9"/>
<path d="M393.136 22.8444C393.136 22.8444 394.462 33.2207 396.847 34.4415C398.507 35.3822 400.028 36.6181 401.354 38.1037L394.727 41.766L381.737 40.8504C381.737 40.8504 382.797 34.1363 380.942 30.7792C379.086 27.4222 393.136 22.8444 393.136 22.8444Z" fill="#FFB9B9"/>
<path d="M417.79 71.9795C417.79 71.9795 423.888 89.9855 417.79 107.381C411.693 124.777 409.042 127.524 409.042 127.524L407.186 104.635L409.32 102.406C409.32 102.406 410.612 95.4618 409.562 91.3503C408.512 87.2389 410.103 74.421 410.103 74.421L417.79 71.9795Z" fill="#FFB9B9"/>
<path d="M372.193 111.044C372.193 111.044 364.505 131.186 365.301 140.952C366.096 150.718 372.193 191.918 372.193 191.918C372.193 191.918 371.398 245.021 373.784 245.021C376.17 245.021 387.569 249.904 387.569 246.547C387.569 243.19 389.955 162.62 389.955 162.62C389.955 162.62 403.475 198.022 404.801 200.769C406.126 203.515 414.609 246.547 417.525 246.547C420.441 246.547 429.455 243.495 428.66 241.358C427.864 239.222 418.851 191.613 413.814 179.405C408.777 167.198 409.837 121.115 409.837 121.115L401.354 99.7516L372.193 111.044Z" fill="#3F3D56"/>
<path d="M379.881 14.2991C379.881 14.2991 372.458 13.6887 371.928 11.5524C371.398 9.41611 370.338 7.58499 370.868 7.58499C371.398 7.58499 371.663 6.05905 371.663 6.05905C371.663 6.05905 372.193 5.75387 372.458 6.05905C372.723 6.36424 372.989 3.92274 372.989 3.92274C372.989 3.92274 373.254 3.00719 373.519 3.61756C373.784 4.22794 373.784 3.92274 374.049 3.00718C374.314 2.09162 375.639 1.48125 375.639 1.48125C375.639 1.48125 380.676 1.78644 381.472 0.56569C382.267 -0.655056 391.28 0.260496 393.136 1.78643C394.992 3.31237 403.21 8.80575 401.884 13.3836C400.559 17.9614 395.787 28.0325 395.787 29.5585C395.787 31.0844 393.931 30.7792 393.401 29.2533C392.871 27.7274 388.629 25.8962 388.629 24.9807C388.629 24.0651 386.243 15.5199 384.918 16.1302C383.593 16.7406 382.002 21.6236 381.472 20.7081C380.942 19.7925 379.881 14.2991 379.881 14.2991Z" fill="#3F3D56"/>
<path d="M416.465 56.1097C416.465 56.1097 405.596 37.7985 402.415 36.8829C399.233 35.9674 392.076 33.5259 392.076 33.5259C392.076 33.5259 384.918 34.7466 382.797 35.9674C380.676 37.1881 372.723 39.3244 372.458 42.9867C372.193 46.6489 374.579 81.7455 373.254 85.1025C371.928 88.4596 367.421 120.504 369.542 119.894C371.663 119.284 370.072 111.349 379.351 111.043C388.629 110.738 393.666 104.329 397.113 111.959C400.559 119.589 410.368 125.387 410.368 125.387C410.614 122.927 410.968 120.482 411.428 118.063C412.223 113.79 409.307 103.414 409.307 103.414C409.307 103.414 409.572 79.304 410.633 76.5573C411.693 73.8106 416.465 56.1097 416.465 56.1097Z" fill="#F24E1E"/>
<path d="M412.488 55.4994L416.465 56.1098C416.465 56.1098 416.2 62.2135 417.26 64.0446C418.321 65.8758 420.176 75.3366 419.116 75.6418C418.056 75.9469 408.512 77.7781 408.512 77.7781L407.982 63.7395L412.488 55.4994Z" fill="#F24E1E"/>
<path d="M369.542 66.4862C369.542 66.4862 366.891 86.3234 365.566 88.7649C364.24 91.2064 357.613 125.387 357.613 125.387C357.613 125.387 346.714 142.835 352.016 142.53C357.318 142.225 362.915 126.608 362.915 126.608C362.915 126.608 379.351 92.122 379.351 88.4597C379.351 84.7975 383.327 66.4862 383.327 66.4862L369.542 66.4862Z" fill="#FFB9B9"/>
<path d="M377.23 39.6296L372.458 41.7659C372.458 41.7659 366.361 66.7913 367.686 68.9276C369.012 71.0639 384.918 68.0121 385.183 67.0965C385.448 66.1809 382.267 39.6296 377.23 39.6296Z" fill="#F24E1E"/>
<path d="M42.3155 205.248C42.3155 234.983 58.5194 259.044 78.5443 259.044L42.3155 205.248Z" fill="#46455B"/>
<path d="M78.5443 259.044C78.5443 228.975 96.6268 204.643 118.973 204.643L78.5443 259.044Z" fill="#F24E1E"/>
<path d="M55.4419 207.943C55.4419 236.188 65.7748 259.044 78.5443 259.044L55.4419 207.943Z" fill="#F24E1E"/>
<path d="M78.5443 259.044C78.5443 220.622 99.4449 189.532 125.274 189.532L78.5443 259.044Z" fill="#46455B"/>
<path d="M70.9227 259.423C70.9227 259.423 76.0605 259.241 77.6089 257.972C79.1573 256.702 85.5122 255.187 85.8963 257.222C86.2804 259.258 93.6175 267.347 87.8169 267.401C82.0163 267.455 74.339 266.361 72.7935 265.277C71.248 264.194 70.9227 259.423 70.9227 259.423Z" fill="#A8A8A8"/>
<path opacity="0.2" d="M87.9204 266.692C82.1199 266.746 74.4425 265.652 72.897 264.569C71.7201 263.743 71.2511 260.782 71.0942 259.416C70.9855 259.421 70.9227 259.423 70.9227 259.423C70.9227 259.423 71.2481 264.194 72.7935 265.277C74.3389 266.361 82.0164 267.455 87.8169 267.401C89.4913 267.386 90.0697 266.7 90.0379 265.684C89.8053 266.298 89.1667 266.681 87.9204 266.692Z" fill="black"/>
</svg>
