<svg preserveAspectRatio="xMidYMid meet" viewBox="0 0 215 170" fill="none" xmlns="http://www.w3.org/2000/svg">
<g clip-path="url(#clip0_2520_280)">
<path d="M51.6174 92.4675C49.9015 83.2839 52.603 72.8361 60.1117 67.2772C59.6862 77.428 62.8648 87.4021 69.0852 95.4349C71.4954 98.5241 74.4978 101.709 74.4045 105.626C74.3465 108.064 73.0284 110.334 71.2914 112.045C69.5542 113.755 67.4143 114.989 65.3001 116.203L64.971 116.715C58.7733 109.724 53.3334 101.651 51.6174 92.4675Z" fill="#F0F0F0"/>
<path d="M60.2485 67.4177C57.0939 74.4779 56.244 82.3526 57.8197 89.9233C58.13 91.5591 58.6961 93.1358 59.4974 94.5953C60.3238 95.9919 61.5092 97.1416 62.9303 97.9251C64.2406 98.6822 65.6687 99.305 66.7721 100.367C67.3289 100.92 67.7627 101.583 68.0449 102.315C68.3272 103.047 68.4516 103.83 68.41 104.613C68.3572 106.567 67.6054 108.385 66.8085 110.138C65.9236 112.084 64.9736 114.091 65.031 116.279C65.038 116.544 64.6262 116.54 64.6193 116.275C64.5195 112.468 67.2715 109.411 67.8847 105.759C68.1709 104.054 67.9451 102.253 66.7469 100.932C65.699 99.777 64.227 99.1335 62.8936 98.3784C61.4961 97.6344 60.302 96.5595 59.4157 95.2476C58.5427 93.8336 57.9167 92.2814 57.5645 90.6573C56.7133 87.0138 56.4403 83.259 56.7555 79.5307C57.0916 75.2735 58.1535 71.1052 59.8952 67.2061C60.0031 66.9648 60.3557 67.1779 60.2485 67.4176L60.2485 67.4177Z" fill="white"/>
<path d="M57.1689 87.5154C55.8628 87.6073 54.5665 87.232 53.5116 86.4564C52.4567 85.6808 51.7119 84.5555 51.4101 83.2815C51.3499 83.0235 51.748 82.9178 51.8082 83.1762C52.0871 84.3631 52.781 85.4113 53.7648 86.1315C54.7486 86.8517 55.9575 87.1965 57.1732 87.1036C57.4374 87.0838 57.4315 87.4956 57.1689 87.5154Z" fill="white"/>
<path d="M62.2153 97.6286C63.9884 95.6236 64.9406 93.024 64.882 90.3482C64.876 90.0831 65.2878 90.0877 65.2938 90.3525C65.3495 93.1372 64.3531 95.8405 62.5034 97.9229C62.327 98.1212 62.0398 97.8259 62.2153 97.6287V97.6286Z" fill="white"/>
<path d="M57.574 75.5291C58.0868 75.5989 58.6088 75.5401 59.0933 75.3582C59.5778 75.1764 60.0095 74.877 60.3496 74.487C60.5235 74.2865 60.8104 74.582 60.6377 74.7812C60.2599 75.2103 59.7827 75.5404 59.2479 75.7425C58.7131 75.9446 58.1369 76.0127 57.5697 75.9408C57.5157 75.9386 57.4645 75.9158 57.4267 75.8771C57.3889 75.8385 57.3671 75.7869 57.366 75.7328C57.3668 75.6783 57.3891 75.6263 57.4281 75.5882C57.4671 75.5501 57.5195 75.5288 57.574 75.5291H57.574Z" fill="white"/>
<path d="M90.8179 74.8734C90.7129 75.0017 90.6079 75.13 90.5039 75.2616C89.1013 76.9936 87.8419 78.8366 86.7378 80.7726C86.6501 80.9209 86.5634 81.0725 86.4801 81.2231C83.87 85.9155 82.1537 91.0518 81.4186 96.3708C81.128 98.4877 80.9989 100.624 81.0323 102.76C81.0787 105.71 81.3638 108.906 80.4594 111.619C80.3682 111.904 80.2595 112.182 80.1339 112.453L65.6211 117.076C65.5828 117.07 65.5454 117.068 65.507 117.062L64.936 117.273C64.9266 117.163 64.9192 117.048 64.9098 116.938C64.904 116.875 64.9015 116.81 64.8958 116.746C64.893 116.703 64.8903 116.66 64.8854 116.622C64.8844 116.607 64.8836 116.593 64.8836 116.582C64.8786 116.543 64.8781 116.507 64.8742 116.472C64.831 115.833 64.7911 115.193 64.758 114.55C64.7569 114.547 64.7569 114.547 64.7591 114.543C64.51 109.651 64.6671 104.695 65.5714 99.9208C65.5986 99.7772 65.6247 99.6303 65.6585 99.4846C66.0781 97.3348 66.6727 95.2229 67.4363 93.17C67.858 92.0473 68.3363 90.9466 68.8694 89.8722C70.252 87.0988 72.0623 84.5601 74.2339 82.3493C78.5635 77.9426 84.2542 74.9696 90.3519 74.876C90.508 74.8737 90.6609 74.8724 90.8179 74.8734Z" fill="#F0F0F0"/>
<path d="M90.844 75.068C84.0744 78.8059 78.6547 84.5817 75.3547 91.5752C74.6176 93.0681 74.1204 94.6679 73.8814 96.3156C73.7005 97.9283 73.9547 99.5599 74.6176 101.041C75.208 102.435 75.9733 103.792 76.2146 105.304C76.3267 106.08 76.2734 106.872 76.0583 107.626C75.8432 108.38 75.4711 109.08 74.9664 109.68C73.7478 111.208 72.0527 112.208 70.3611 113.127C68.483 114.148 66.5159 115.179 65.2445 116.961C65.0904 117.177 64.7645 116.925 64.9183 116.709C67.1304 113.61 71.1684 112.826 73.8571 110.279C75.1117 109.09 76.0158 107.516 75.8544 105.74C75.7134 104.187 74.9254 102.787 74.3154 101.381C73.6475 99.9455 73.3413 98.3684 73.4234 96.7873C73.5777 95.1327 74.0125 93.5164 74.7091 92.0077C76.2231 88.586 78.2657 85.4237 80.7621 82.6365C83.5936 79.4398 86.951 76.751 90.6892 74.6864C90.9206 74.5587 91.0739 74.9412 90.844 75.068Z" fill="white"/>
<path d="M76.2848 89.2608C75.1866 88.5478 74.3776 87.4677 74.0023 86.2133C73.6269 84.959 73.7097 83.612 74.2358 82.4131C74.3431 82.1708 74.7245 82.3261 74.6171 82.5687C74.1251 83.6843 74.0482 84.939 74.4001 86.1063C74.752 87.2737 75.5095 88.2768 76.5361 88.9346C76.759 89.0778 76.5064 89.4032 76.2848 89.2608H76.2848Z" fill="white"/>
<path d="M74.2252 100.374C76.848 99.8406 79.1735 98.3382 80.7378 96.1664C80.8926 95.9511 81.2186 96.2027 81.0639 96.4178C79.4318 98.6747 77.0087 100.233 74.2781 100.782C74.0178 100.834 73.9663 100.426 74.2252 100.374V100.374Z" fill="white"/>
<path d="M83.8248 79.9344C84.1923 80.2988 84.6444 80.5662 85.1408 80.7127C85.6371 80.8591 86.162 80.88 86.6684 80.7735C86.9279 80.718 86.9791 81.1267 86.7213 81.1818C86.1613 81.2969 85.5816 81.2731 85.0329 81.1125C84.4841 80.9519 83.9831 80.6594 83.5735 80.2605C83.5317 80.2261 83.5046 80.1772 83.4977 80.1235C83.4907 80.0699 83.5045 80.0156 83.5361 79.9718C83.5696 79.9288 83.6187 79.9007 83.6727 79.8937C83.7268 79.8867 83.7815 79.9013 83.8248 79.9344V79.9344Z" fill="white"/>
<path d="M113.614 24.6542C113.663 24.8679 113.695 25.0852 113.709 25.3039L130.725 35.1203L134.861 32.7393L139.27 38.5115L132.358 43.4382C131.8 43.8362 131.127 44.0423 130.442 44.0256C129.756 44.0089 129.094 43.7703 128.556 43.3455L111.01 29.5031C110.218 29.7962 109.356 29.8413 108.537 29.6324C107.719 29.4235 106.984 28.9704 106.43 28.3335C105.875 27.6966 105.528 26.906 105.434 26.0669C105.34 25.2277 105.504 24.3799 105.903 23.636C106.303 22.8922 106.919 22.2876 107.671 21.9027C108.423 21.5179 109.273 21.3709 110.111 21.4815C110.948 21.592 111.731 21.9548 112.357 22.5215C112.983 23.0883 113.422 23.8322 113.614 24.6542V24.6542Z" fill="#FFB6B6"/>
<path d="M130.961 34.0365C131.015 33.7861 131.123 33.5503 131.276 33.3452C131.429 33.14 131.625 32.9704 131.85 32.8479L139.706 28.5676C140.752 27.778 142.069 27.4355 143.367 27.6153C144.666 27.795 145.84 28.4823 146.632 29.5264C147.424 30.5705 147.77 31.8862 147.594 33.185C147.417 34.4837 146.733 35.6595 145.691 36.4545L139.395 42.8509C139.215 43.0334 138.998 43.1751 138.759 43.2662C138.519 43.3573 138.263 43.3958 138.008 43.379C137.752 43.3622 137.503 43.2905 137.278 43.1688C137.052 43.0471 136.856 42.8782 136.702 42.6737L131.281 35.4862C131.126 35.2818 131.018 35.0464 130.963 34.7962C130.908 34.546 130.907 34.2869 130.961 34.0365Z" fill="#3F3D56"/>
<path d="M144.996 9.15218C146.127 5.54993 148.697 2.24608 152.252 1.02832C155.807 -0.189433 161.012 1.6656 163.684 4.32909C168.573 9.20114 169.766 25.9384 166.407 31.2276C165.739 31.1922 163.434 31.1661 162.758 31.1407L161.802 27.9528V31.1093C156.524 30.9462 151.03 31.0483 145.532 31.1539C145.04 27.4092 143.866 12.7544 144.996 9.15218Z" fill="#2F2E41"/>
<path d="M143.484 160.356H138.67L136.38 141.789L143.485 141.789L143.484 160.356Z" fill="#FFB6B6"/>
<path d="M185.622 157.363L180.964 158.576L174.064 141.188L180.939 139.396L185.622 157.363Z" fill="#FFB6B6"/>
<path d="M159.095 46.3216L160.186 49.1573L159.967 51.9931L138.622 59.3865L139.681 46.976L142.08 44.1399L159.095 46.3216Z" fill="#FFB6B6"/>
<path d="M152.346 20.8023C156.556 20.8023 159.97 17.389 159.97 13.1784C159.97 8.9678 156.556 5.55444 152.346 5.55444C148.135 5.55444 144.722 8.9678 144.722 13.1784C144.722 17.389 148.135 20.8023 152.346 20.8023Z" fill="#FFB7B7"/>
<path d="M147.107 3.25066C148.572 2.35761 150.25 1.87452 151.966 1.85191C153.681 1.82929 155.371 2.26798 156.859 3.1221C158.347 3.97623 159.578 5.21441 160.424 6.7072C161.269 8.19999 161.698 9.89254 161.666 11.6079C157.51 12.6701 153.081 13.1143 148.388 11.8637L147.316 9.23812L146.683 11.8657C145.247 12.8756 143.861 12.8738 142.526 11.8602C142.469 10.1497 142.862 8.45427 143.666 6.94343C144.47 5.43258 145.657 4.15923 147.107 3.25066Z" fill="#2F2E41"/>
<path d="M145.637 169.496H142.221L141.612 166.271L140.05 169.496H130.991C130.557 169.496 130.134 169.357 129.784 169.1C129.435 168.842 129.176 168.48 129.047 168.065C128.918 167.651 128.924 167.206 129.066 166.795C129.208 166.385 129.477 166.03 129.834 165.784L137.068 160.787V157.527L144.678 157.981L145.637 169.496Z" fill="#2F2E41"/>
<path d="M190.433 165.554L187.128 166.415L185.724 163.448L185.027 166.963L176.26 169.248C175.84 169.357 175.396 169.33 174.993 169.169C174.589 169.008 174.248 168.723 174.018 168.354C173.789 167.986 173.683 167.553 173.716 167.12C173.75 166.687 173.921 166.276 174.204 165.948L179.945 159.288L179.122 156.133L186.6 154.654L190.433 165.554Z" fill="#2F2E41"/>
<path d="M185.031 145.686L170.921 116.687L166.492 81.3911C169.546 75.7195 163.874 64.179 163.874 64.179V59.3336L141.904 63.4784V63.4784C137.411 75.7347 135.231 88.7187 135.478 101.77L136.363 148.689H136.085C135.624 148.689 135.182 148.872 134.857 149.198C134.531 149.523 134.348 149.965 134.348 150.426C134.348 150.887 134.531 151.329 134.857 151.655C135.182 151.981 135.624 152.164 136.085 152.164H144.773C145.234 152.164 145.676 151.981 146.002 151.655C146.328 151.329 146.511 150.887 146.511 150.426C146.511 149.965 146.328 149.523 146.002 149.198C145.676 148.872 145.234 148.689 144.773 148.689H144.549L150.786 89.0003L158.038 118.455L175.563 145.575C175.116 145.61 174.7 145.817 174.402 146.152C174.104 146.487 173.948 146.924 173.966 147.372C173.984 147.82 174.175 148.244 174.499 148.554C174.822 148.865 175.254 149.037 175.702 149.036H184.39C184.794 149.037 185.186 148.896 185.497 148.639C185.809 148.381 186.021 148.023 186.097 147.626C186.173 147.23 186.108 146.819 185.913 146.465C185.719 146.11 185.407 145.835 185.031 145.686H185.031Z" fill="#2F2E41"/>
<path d="M165.861 67.1496H165.861C165.788 66.8661 165.628 66.6127 165.403 66.4257C165.178 66.2388 164.9 66.1279 164.608 66.1089C164.318 62.798 162.405 41.5642 162.332 40.9413L162.329 40.915L161.775 29.0793C161.755 28.6495 161.577 28.2421 161.276 27.935C160.974 27.628 160.57 27.4427 160.141 27.4146L157.215 27.2233C157.174 27.222 157.136 27.2051 157.108 27.1762C157.081 27.1473 157.065 27.1087 157.065 27.0686C157.065 26.7454 157.001 26.4254 156.878 26.1268C156.754 25.8283 156.573 25.557 156.344 25.3285C156.116 25.0999 155.844 24.9187 155.546 24.795C155.247 24.6713 154.927 24.6077 154.604 24.6077H145.94C145.379 24.6079 144.837 24.8129 144.416 25.1843C143.996 25.5556 143.725 26.0678 143.655 26.6246C143.651 26.6629 143.633 26.6984 143.604 26.7239C143.575 26.7494 143.538 26.7631 143.499 26.7623L143.498 26.7622C142.514 26.7419 141.555 27.0753 140.795 27.7017C140.035 28.3281 139.525 29.2061 139.357 30.1764C138.173 37.068 135.799 52.7093 136.973 61.405C137.381 64.4321 137.196 68.9848 137.041 71.5176C137.026 71.7624 137.059 72.0078 137.138 72.2397C137.218 72.4717 137.343 72.6856 137.505 72.8693C137.16 72.9689 136.866 73.1988 136.687 73.5105C136.508 73.8222 136.456 74.1913 136.544 74.5401H136.544C136.634 74.8975 136.862 75.2046 137.179 75.3936C137.495 75.5827 137.874 75.6383 138.232 75.5482L164.853 68.8373C165.21 68.7472 165.517 68.5188 165.706 68.2023C165.895 67.8858 165.951 67.5071 165.861 67.1496Z" fill="#3F3D56"/>
<path d="M121.863 116.908C121.858 116.131 121.578 115.381 121.073 114.79C120.567 114.2 119.869 113.807 119.102 113.683L71.9041 105.932C71.4515 105.857 70.9883 105.878 70.5441 105.993L59.483 108.853L53.1365 110.496L41.4243 113.523C40.7173 113.707 40.0912 114.12 39.6442 114.698C39.1972 115.276 38.9546 115.985 38.9544 116.716V166.172C38.9579 166.926 39.2184 167.657 39.693 168.243C40.1675 168.828 40.8276 169.235 41.5644 169.395L89.6387 168.851C89.8644 168.899 90.0947 168.923 90.3255 168.922C90.6619 168.923 90.9964 168.872 91.3174 168.771L119.879 169.482C120.554 169.271 121.142 168.849 121.557 168.278C121.972 167.707 122.192 167.017 122.185 166.311L121.863 116.908Z" fill="white"/>
<path d="M121.863 116.908C121.858 116.131 121.578 115.381 121.073 114.79C120.567 114.2 119.869 113.807 119.102 113.683L71.9041 105.932C71.4515 105.857 70.9883 105.878 70.5441 105.993L59.483 108.853L53.1365 110.496L41.4243 113.523C40.7173 113.707 40.0912 114.12 39.6442 114.698C39.1972 115.276 38.9546 115.985 38.9544 116.716V166.172C38.9579 166.926 39.2184 167.657 39.693 168.242C40.1675 168.828 40.8276 169.235 41.5644 169.395L89.6387 168.851C89.8644 168.899 90.0947 168.923 90.3255 168.922C90.6619 168.923 90.9964 168.872 91.3174 168.771L119.879 169.482C120.554 169.271 121.142 168.849 121.557 168.278C121.972 167.707 122.192 167.017 122.185 166.311L121.863 116.908ZM119.632 168.696L91.0701 169.375C90.6626 169.502 90.2295 169.523 89.8118 169.436L41.7348 168.59C41.1824 168.47 40.6875 168.165 40.3319 167.725C39.9763 167.285 39.7811 166.738 39.7786 166.172V116.716C39.779 116.21 39.9346 115.716 40.2244 115.3C40.5142 114.885 40.9244 114.569 41.3996 114.394C41.475 114.366 41.5521 114.342 41.6304 114.323L54.0212 111.119L61.3486 109.224L70.7502 106.792C70.9518 106.738 71.1597 106.712 71.3684 106.712C71.5027 106.712 71.6369 106.723 71.7695 106.745L118.967 114.496C119.347 114.558 119.707 114.708 120.019 114.934C120.331 115.159 120.586 115.454 120.764 115.795C120.942 116.141 121.037 116.524 121.039 116.914L121.36 166.317C121.366 166.846 121.201 167.364 120.89 167.792C120.579 168.221 120.138 168.538 119.632 168.696Z" fill="#CCCCCC"/>
<path d="M120.764 115.795C120.732 115.816 120.697 115.832 120.66 115.842L106.777 119.595L102.455 120.763L90.1634 124.084C90.1284 124.093 90.0924 124.098 90.0563 124.098C90.0315 124.098 90.0067 124.096 89.9821 124.093L40.4188 115.056L40.2539 115.026C40.1465 115.006 40.0515 114.944 39.9896 114.854C39.9277 114.764 39.904 114.653 39.9236 114.546C39.9432 114.438 40.0046 114.343 40.0943 114.281C40.184 114.218 40.2947 114.194 40.4023 114.213L41.3996 114.394L90.0398 123.263L100.634 120.4L106.56 118.798L120.228 115.103L120.445 115.045C120.539 115.021 120.639 115.03 120.727 115.071C120.815 115.112 120.885 115.183 120.926 115.271C120.937 115.292 120.945 115.314 120.951 115.337C120.974 115.423 120.968 115.514 120.934 115.597C120.9 115.68 120.841 115.749 120.764 115.795Z" fill="#CCCCCC"/>
<path d="M90.4684 169.018C90.2425 169.018 90.0584 168.836 90.0563 170L89.6442 125.08C89.642 123.462 89.825 123.276 90.0525 123.274H90.0563C90.2822 123.274 90.4662 123.456 90.4684 125.072L90.8805 169.993C90.8826 168.83 90.6997 169.016 90.4721 169.018H90.4684Z" fill="#CCCCCC"/>
<path d="M106.894 169.54L102.455 169.587L100.634 120.4L54.1558 111.152C54.1103 111.144 54.0653 111.133 54.0212 111.119C53.6642 111.018 53.3523 110.798 53.1366 110.496L59.4831 108.853L61.3486 109.224L105.45 117.996C105.682 118.042 105.901 118.137 106.093 118.276C106.284 118.414 106.444 118.592 106.56 118.798C106.697 119.037 106.891 169.254 106.894 169.54Z" fill="#CCCCCC"/>
<path d="M142.446 26.8804C142.442 26.2946 142.231 25.7291 141.85 25.2842C141.469 24.8392 140.943 24.5435 140.365 24.4495L104.794 18.6084C104.453 18.5519 104.104 18.5674 103.769 18.6539L95.4329 20.8094L90.6498 22.0476L81.8228 24.3294C81.29 24.4678 80.8181 24.7791 80.4812 25.2145C80.1444 25.65 79.9615 26.1849 79.9614 26.7354V55.8894C79.964 56.4577 80.1604 57.008 80.518 57.4496C80.8756 57.8912 81.3732 58.1976 81.9284 58.3182L118.16 66.0271C118.33 66.0637 118.503 66.0817 118.677 66.0809C118.931 66.0814 119.183 66.043 119.425 65.9671L140.951 59.1693C141.459 59.0108 141.902 58.6927 142.215 58.2622C142.528 57.8318 142.694 57.312 142.688 56.7798L142.446 26.8804Z" fill="white"/>
<path d="M104.391 20.7493C104.365 20.7492 104.339 20.7526 104.314 20.7592L82.3679 26.4347C82.3014 26.452 82.2425 26.4908 82.2004 26.5451C82.1583 26.5995 82.1355 26.6663 82.1355 26.735V55.8886C82.1357 55.9596 82.1602 56.0283 82.2049 56.0835C82.2495 56.1387 82.3117 56.177 82.3811 56.1921L118.612 63.9008C118.665 63.9118 118.719 63.9092 118.771 63.8931L140.297 57.0955C140.36 57.0757 140.416 57.036 140.455 56.9822C140.494 56.9285 140.514 56.8635 140.513 56.7971L140.272 26.8978C140.272 26.8246 140.245 26.754 140.198 26.6985C140.15 26.6429 140.084 26.606 140.012 26.5943L104.441 20.7533C104.425 20.7507 104.408 20.7493 104.391 20.7493Z" fill="#F24E1E"/>
<path d="M142.446 26.8804C142.442 26.2946 142.231 25.7291 141.85 25.2842C141.469 24.8392 140.943 24.5435 140.365 24.4495L104.794 18.6084C104.453 18.5519 104.104 18.5674 103.769 18.6539L95.4329 20.8094L90.6498 22.0476L81.8228 24.3294C81.29 24.4678 80.8181 24.7791 80.4812 25.2145C80.1444 25.65 79.9615 26.1849 79.9614 26.7354V55.8894C79.964 56.4577 80.1604 57.008 80.518 57.4496C80.8756 57.8912 81.3732 58.1976 81.9284 58.3182L118.16 66.0271C118.33 66.0637 118.503 66.0817 118.677 66.0809C118.931 66.0814 119.183 66.043 119.425 65.9671L140.951 59.1693C141.459 59.0108 141.902 58.6927 142.215 58.2622C142.528 57.8318 142.694 57.312 142.688 56.7798L142.446 26.8804ZM140.764 58.5771L119.239 65.3749C118.931 65.4705 118.605 65.4862 118.29 65.4204L82.0568 57.7116C81.6405 57.6208 81.2675 57.3908 80.9995 57.0596C80.7315 56.7283 80.5844 56.3156 80.5825 55.8895V26.7355C80.5828 26.3539 80.7001 25.9816 80.9185 25.6687C81.137 25.3559 81.4461 25.1175 81.8042 24.9858C81.8611 24.9644 81.9191 24.9465 81.9781 24.932L91.3165 22.5177L96.8388 21.0889L103.924 19.2565C104.076 19.2159 104.233 19.1957 104.39 19.1964C104.492 19.1964 104.593 19.2047 104.693 19.2213L140.263 25.0624C140.55 25.1094 140.821 25.2223 141.056 25.3923C141.291 25.5623 141.483 25.7847 141.618 26.0418C141.752 26.3025 141.823 26.5913 141.825 26.8845L142.067 56.784C142.071 57.1831 141.947 57.5731 141.712 57.8961C141.478 58.2191 141.145 58.4579 140.764 58.5771V58.5771Z" fill="#3F3D56"/>
<path d="M141.618 26.0417C141.593 26.0576 141.567 26.0695 141.539 26.0769L131.076 28.9054L127.819 29.7854L118.555 32.2887C118.529 32.2952 118.502 32.2987 118.474 32.2991C118.456 32.2987 118.437 32.2973 118.419 32.2949L81.065 25.4847L80.9408 25.462C80.8598 25.4468 80.7881 25.4002 80.7414 25.3323C80.6947 25.2645 80.6768 25.1809 80.6916 25.0998C80.7063 25.0188 80.7526 24.9469 80.8203 24.8999C80.8879 24.8529 80.9715 24.8346 81.0526 24.8491L81.8042 24.9857L118.462 31.6696L126.446 29.512L130.913 28.3049L141.214 25.5199L141.377 25.4764C141.448 25.4578 141.523 25.4646 141.589 25.4956C141.656 25.5266 141.709 25.5799 141.74 25.6462C141.748 25.6621 141.754 25.6787 141.758 25.6959C141.775 25.761 141.771 25.8299 141.746 25.8923C141.72 25.9546 141.675 26.0071 141.618 26.0417Z" fill="#3F3D56"/>
<path d="M118.785 66.1534C118.703 66.1534 118.625 66.1211 118.566 66.0635C118.508 66.0058 118.475 65.9276 118.474 65.8457L118.164 31.9914C118.163 31.909 118.195 31.8298 118.253 31.771C118.311 31.7122 118.389 31.6787 118.472 31.678H118.474C118.556 31.678 118.635 31.7103 118.693 31.7679C118.751 31.8256 118.784 31.9039 118.785 31.9857L119.096 65.84C119.096 65.9224 119.064 66.0017 119.007 66.0604C118.949 66.1192 118.87 66.1527 118.788 66.1534H118.785Z" fill="#3F3D56"/>
<path d="M131.076 62.0349L127.819 62.9149L126.446 29.512L91.418 22.5424C91.3837 22.5363 91.3498 22.528 91.3165 22.5176C91.0474 22.4409 90.8123 22.2752 90.6497 22.0475L95.4328 20.8093L96.8388 21.0889L130.076 27.7003C130.251 27.7348 130.416 27.8067 130.56 27.9111C130.705 28.0154 130.825 28.1498 130.913 28.3049C131.016 28.485 131.074 61.8196 131.076 62.0349Z" fill="#3F3D56"/>
<path d="M129.617 42.99C129.784 43.1325 129.939 43.2879 130.081 43.4547L149.593 41.176L151.49 36.7971L158.473 38.7972L155.867 46.8756C155.656 47.5282 155.24 48.0949 154.68 48.4906C154.12 48.8864 153.446 49.0898 152.761 49.0703L130.421 48.4352C129.96 49.143 129.295 49.6938 128.514 50.0144C127.733 50.3351 126.873 50.4103 126.048 50.23C125.223 50.0498 124.473 49.6227 123.896 49.0056C123.32 48.3884 122.945 47.6104 122.822 46.7751C122.699 45.9398 122.833 45.0867 123.206 44.3294C123.579 43.572 124.174 42.9463 124.912 42.5354C125.65 42.1245 126.495 41.9479 127.335 42.0291C128.176 42.1103 128.972 42.4455 129.617 42.99Z" fill="#FFB6B6"/>
<path d="M149.135 40.1653C149.029 39.9322 148.974 39.6789 148.975 39.4228C148.976 39.1666 149.032 38.9136 149.139 38.6811L152.888 30.5581C153.256 29.3003 154.108 28.2399 155.257 27.6093C156.406 26.9788 157.758 26.8296 159.017 27.1945C160.276 27.5594 161.339 28.4086 161.972 29.5559C162.606 30.7031 162.759 32.0549 162.397 33.3146L161.163 42.2046C161.127 42.4584 161.038 42.7015 160.9 42.9175C160.762 43.1335 160.58 43.3173 160.365 43.4563C160.15 43.5954 159.907 43.6864 159.654 43.7233C159.4 43.7601 159.142 43.7419 158.896 43.6699L150.257 41.1381C150.011 41.0662 149.783 40.942 149.59 40.7741C149.396 40.6063 149.241 40.3986 149.135 40.1653Z" fill="#3F3D56"/>
<path d="M214.586 169.901H0.413782C0.304248 169.901 0.199305 169.857 0.121965 169.78C0.0446245 169.702 0.00120163 169.597 0.00120163 169.488C0.00120163 169.378 0.0446245 169.273 0.121965 169.195C0.199305 169.118 0.304248 169.074 0.413782 169.074H214.586C214.696 169.074 214.801 169.117 214.879 169.195C214.956 169.273 215 169.378 215 169.488C215 169.597 214.956 169.702 214.879 169.78C214.801 169.858 214.696 169.901 214.586 169.901Z" fill="#CACACA"/>
<path d="M41.7412 125.935C48.6143 125.935 54.1861 120.363 54.1861 113.49C54.1861 106.616 48.6143 101.045 41.7412 101.045C34.868 101.045 29.2962 106.616 29.2962 113.49C29.2962 120.363 34.868 125.935 41.7412 125.935Z" fill="#F24E1E"/>
<path d="M40.0434 119.967C39.8285 119.967 39.6166 119.917 39.4243 119.82C39.2321 119.724 39.065 119.585 38.9361 119.413L35.5409 114.886C35.3206 114.592 35.2261 114.223 35.278 113.859C35.3299 113.496 35.5241 113.168 35.8178 112.948C36.1115 112.728 36.4807 112.633 36.8442 112.685C37.2076 112.737 37.5356 112.931 37.7558 113.225L39.9771 116.186L45.682 107.629C45.7826 107.477 45.9121 107.346 46.0633 107.245C46.2144 107.143 46.3841 107.072 46.5626 107.036C46.7412 107 46.9251 107 47.1038 107.035C47.2826 107.07 47.4526 107.14 47.6042 107.241C47.7557 107.342 47.8859 107.472 47.9871 107.624C48.0883 107.775 48.1587 107.945 48.1941 108.124C48.2296 108.302 48.2294 108.486 48.1937 108.665C48.1579 108.844 48.0872 109.013 47.9857 109.165L41.1954 119.35C41.0725 119.534 40.9073 119.686 40.7136 119.794C40.5199 119.901 40.3033 119.96 40.0819 119.966C40.0691 119.966 40.0563 119.967 40.0434 119.967Z" fill="white"/>
<path d="M94.7312 47.3876C94.6924 47.3875 94.6539 47.3832 94.6161 47.3747L83.8431 44.9421C83.7084 44.9115 83.5913 44.8287 83.5176 44.7119C83.4439 44.595 83.4195 44.4537 83.4499 44.319C83.4803 44.1842 83.563 44.067 83.6797 43.9932C83.7964 43.9193 83.9377 43.8948 84.0725 43.925L94.8455 46.3576C94.9706 46.3859 95.0809 46.4592 95.1553 46.5636C95.2297 46.6681 95.263 46.7963 95.2488 46.9237C95.2347 47.0512 95.174 47.1689 95.0785 47.2545C94.983 47.3401 94.8594 47.3874 94.7312 47.3876Z" fill="white"/>
<path d="M53.2703 145.296C53.2324 145.303 53.1937 145.307 53.155 145.306L42.1123 145.12C41.9743 145.118 41.8429 145.061 41.747 144.961C41.6511 144.862 41.5985 144.729 41.6008 144.591C41.6031 144.452 41.6601 144.321 41.7592 144.225C41.8583 144.129 41.9916 144.076 42.1296 144.078L53.1723 144.264C53.3005 144.266 53.4234 144.315 53.5175 144.403C53.6117 144.49 53.6704 144.608 53.6825 144.736C53.6946 144.864 53.6593 144.991 53.5832 145.094C53.5072 145.198 53.3958 145.269 53.2703 145.296Z" fill="#E6E6E6"/>
<path d="M57.0929 151.203C57.055 151.211 57.0164 151.215 56.9777 151.214L45.935 151.028C45.7969 151.026 45.6655 150.968 45.5696 150.869C45.4737 150.77 45.4212 150.636 45.4235 150.498C45.4258 150.36 45.4827 150.229 45.5819 150.133C45.681 150.036 45.8142 149.984 45.9523 149.986L56.995 150.172C57.1232 150.174 57.2461 150.223 57.3402 150.31C57.4343 150.397 57.4931 150.516 57.5052 150.644C57.5173 150.771 57.482 150.899 57.4059 151.002C57.3299 151.105 57.2184 151.177 57.0929 151.203Z" fill="#E6E6E6"/>
</g>
<defs>
<clipPath id="clip0_2520_280">
<rect width="215" height="169.354" fill="white" transform="translate(0 0.646484)"/>
</clipPath>
</defs>
</svg>
