<svg preserveAspectRatio="xMidYMid meet" viewBox="0 0 50 60" fill="none" xmlns="http://www.w3.org/2000/svg">
<path d="M0.799988 52.3628C0.799988 56.4143 3.88774 59.8442 7.80349 59.5852C23.1456 58.5714 36.6006 53.0362 47.1404 42.2433C50.1315 39.1834 49.5416 34.1847 46.44 31.6317L45.5982 30.9361L44.2286 32.5678L44.2044 32.5937C34.0752 43.7492 19.3955 50.2982 3.80494 50.2982H0.799988L0.799988 52.3628ZM0.799988 46.6019L0.799988 5.95003C0.799988 1.39163 5.65069 -1.22057 9.06274 1.50633L14.6103 5.93893V5.93153C14.6103 4.95023 14.9738 4.00912 15.6208 3.31524C16.2678 2.62135 17.1453 2.23153 18.0603 2.23153C18.9753 2.23153 19.8529 2.62135 20.4999 3.31524C21.1469 4.00912 21.5103 4.95023 21.5103 5.93153L21.5103 13.3389C21.5138 13.8081 21.6834 14.2583 21.9847 14.5984C22.286 14.9385 22.6966 15.1432 23.1333 15.1709C23.57 15.1987 24.0002 15.0474 24.3368 14.7478C24.6735 14.4482 24.8914 14.0226 24.9465 13.5572L24.9465 11.4852C24.9465 10.5039 25.31 9.56282 25.957 8.86893C26.604 8.17505 27.4815 7.78523 28.3965 7.78523C29.3115 7.78523 30.1891 8.17505 30.8361 8.86893C31.4831 9.56282 31.8465 10.5039 31.8465 11.4852L31.8465 19.7658C34.6928 22.0043 39.0432 25.5526 42.852 28.6754L41.7101 30.0407C32.2605 40.4303 18.4985 46.6019 3.80149 46.6019H0.799988ZM15.4556 36.4565C15.4554 36.0933 15.3884 35.7337 15.2586 35.3983C15.1288 35.0628 14.9387 34.758 14.699 34.5014C14.4594 34.2447 14.175 34.0412 13.862 33.9024C13.549 33.7637 13.2136 33.6924 12.875 33.6926C12.5363 33.6929 12.201 33.7646 11.8882 33.9039C11.5754 34.0431 11.2913 34.247 11.052 34.504C10.8126 34.761 10.6229 35.066 10.4935 35.4017C10.3641 35.7373 10.2976 36.097 10.2978 36.4602C10.2978 37.1937 10.5695 37.8972 11.0532 38.4159C11.5368 38.9346 12.1928 39.226 12.8767 39.226C13.5607 39.226 14.2166 38.9346 14.7003 38.4159C15.1839 37.8972 15.4556 37.1937 15.4556 36.4602V36.4565ZM25.7193 29.0565C25.7193 28.323 25.4476 27.6195 24.964 27.1008C24.4804 26.5822 23.8244 26.2908 23.1405 26.2908C22.4565 26.2908 21.8006 26.5822 21.3169 27.1008C20.8333 27.6195 20.5616 28.323 20.5616 29.0565C20.5616 29.79 20.8333 30.4935 21.3169 31.0122C21.8006 31.5309 22.4565 31.8223 23.1405 31.8223C23.8244 31.8223 24.4804 31.5309 24.964 31.0122C25.4476 30.4935 25.7193 29.79 25.7193 29.0565ZM15.4832 19.7991C15.4832 19.0617 15.21 18.3544 14.7238 17.833C14.2376 17.3115 13.5781 17.0186 12.8905 17.0186C12.2029 17.0186 11.5434 17.3115 11.0572 17.833C10.571 18.3544 10.2978 19.0617 10.2978 19.7991C10.2978 20.5366 10.571 21.2438 11.0572 21.7653C11.5434 22.2867 12.2029 22.5797 12.8905 22.5797C13.5781 22.5797 14.2376 22.2867 14.7238 21.7653C15.21 21.2438 15.4832 20.5366 15.4832 19.7991Z" fill="#F24E1E"/>
</svg>
